<svg xmlns="http://www.w3.org/2000/svg" width="20" height="20" viewBox="0 0 20 20" fill="none">
  <path d="M9.99935 1.66699C5.41602 1.66699 1.66602 5.41699 1.66602 10.0003C1.66602 14.5837 5.41602 18.3337 9.99935 18.3337C14.5827 18.3337 18.3327 14.5837 18.3327 10.0003C18.3327 5.41699 14.5827 1.66699 9.99935 1.66699ZM13.0827 11.917C13.416 12.2503 13.416 12.7503 13.0827 13.0837C12.7493 13.417 12.2493 13.417 11.916 13.0837L9.99935 11.167L8.08268 13.0837C7.74935 13.417 7.24935 13.417 6.91602 13.0837C6.58268 12.7503 6.58268 12.2503 6.91602 11.917L8.83268 10.0003L6.91602 8.08366C6.58268 7.75033 6.58268 7.25033 6.91602 6.91699C7.24935 6.58366 7.74935 6.58366 8.08268 6.91699L9.99935 8.83366L11.916 6.91699C12.2493 6.58366 12.7493 6.58366 13.0827 6.91699C13.416 7.25033 13.416 7.75033 13.0827 8.08366L11.166 10.0003L13.0827 11.917Z" fill="currentColor"/>
</svg>
