<svg width="1131" height="711" viewBox="0 0 1131 711" fill="none" xmlns="http://www.w3.org/2000/svg">
  <rect x="309.025" y="86.2773" width="730.92" height="76.8775" rx="13.662" fill="white" />
  <rect x="309.025" y="86.2773" width="730.92" height="76.8775" rx="13.662" stroke="#71B8FF" />
  <path d="M294.436 43.5879L1060.47 43.588" stroke="#6B7C84" stroke-width="4" stroke-linecap="square" />
  <path d="M294.436 67.5879L1060.47 67.5881" stroke="#6B7C84" stroke-width="4" stroke-linecap="square" />
  <rect x="1059.94" y="1.1543" width="69.9924" height="108.829" rx="16.5" fill="white" />
  <rect x="1059.94" y="1.1543" width="69.9924" height="108.829" rx="16.5" stroke="#71B8FF" />

  <rect x="309.025" y="288.277" width="730.92" height="76.8775" rx="13.662" fill="white" />
  <rect x="309.025" y="288.277" width="730.92" height="76.8775" rx="13.662" stroke="#71B8FF" />
  <path d="M294.436 245.588L1060.47 245.588" stroke="#6B7C84" stroke-width="4" stroke-linecap="square" />
  <path d="M294.436 269.588L1060.47 269.588" stroke="#6B7C84" stroke-width="4" stroke-linecap="square" />
  <rect x="1059.94" y="203.154" width="69.9924" height="108.829" rx="16.5" fill="white" />
  <rect x="1059.94" y="203.154" width="69.9924" height="108.829" rx="16.5" stroke="#71B8FF" />

  <rect x="309.025" y="490.279" width="730.92" height="76.8775" rx="13.662" fill="white" />
  <rect x="309.025" y="490.279" width="730.92" height="76.8775" rx="13.662" stroke="#71B8FF" />

  <path d="M294.436 447.59L1060.47 447.59" stroke="#6B7C84" stroke-width="4" stroke-linecap="square" />
  <path d="M294.436 471.59L1060.47 471.59" stroke="#6B7C84" stroke-width="4" stroke-linecap="square" />
  <rect x="1059.94" y="405.156" width="69.9924" height="108.829" rx="16.5" fill="white" />
  <rect x="1059.94" y="405.156" width="69.9924" height="108.829" rx="16.5" stroke="#71B8FF" />

  <path d="M268.657 471.541L268.657 67.5781" stroke="#6B7C84" stroke-width="4" stroke-linecap="square" />
  <path d="M292.657 447.591L292.66 43.7559" stroke="#6B7C84" stroke-width="4" stroke-linecap="square" />
  <path d="M92.4307 43.7559L291.449 43.7559" stroke="#6B7C84" stroke-width="4" stroke-linecap="square" />
  <path d="M268.638 270.15L291.448 270.15" stroke="#6B7C84" stroke-width="4" stroke-linecap="square" />
  <path d="M218.148 67.5117L306.84 67.5117" stroke="#6B7C84" stroke-width="4" stroke-linecap="square" />
  <path d="M268.658 471.574L306.838 471.574" stroke="#6B7C84" stroke-width="4" stroke-linecap="square" />
  <path d="M56.8008 43.6367L112.657 43.6368" stroke="#6B7C84" stroke-width="4" stroke-linecap="square" />
  <path d="M56.6582 105.637L56.6582 43.6367" stroke="#6B7C84" stroke-width="4" stroke-linecap="square" />
  <path d="M68.4814 62.1582L44.8328 71.9735" stroke="#6B7C84" stroke-width="4" stroke-linecap="round" />
  <path d="M68.3936 69.123L44.9198 79.3495" stroke="#6B7C84" stroke-width="4" stroke-linecap="round" />
  <path d="M68.4814 76.5L44.8328 86.3153" stroke="#6B7C84" stroke-width="4" stroke-linecap="round" />
  <path d="M16.6572 105.637L96.6572 105.637" stroke="#6B7C84" stroke-width="4" stroke-linecap="round" />
  <path d="M16.6572 121.637L16.6572 105.637" stroke="#6B7C84" stroke-width="4" stroke-linecap="round" />

  <path d="M16.6572 223.637L16.6572 207.637" stroke="#6B7C84" stroke-width="4" stroke-linecap="square" />
  <path d="M56.6572 121.637L56.6572 105.637" stroke="#6B7C84" stroke-width="4" stroke-linecap="round" />

  <path d="M56.6572 223.637L56.6572 207.637" stroke="#6B7C84" stroke-width="4" stroke-linecap="square" />
  <path d="M96.6572 121.637L96.6572 105.637" stroke="#6B7C84" stroke-width="4" stroke-linecap="round" />

  <path d="M96.6572 223.637L96.6572 207.637" stroke="#6B7C84" stroke-width="4" stroke-linecap="square" />

  <path d="M188.787 67.6367L244.657 67.6368" stroke="#6B7C84" stroke-width="4" stroke-linecap="square" />
  <path d="M188.658 105.637L188.658 67.6367" stroke="#6B7C84" stroke-width="4" stroke-linecap="square" />
  <path d="M200.481 74.3125L176.833 84.1278" stroke="#6B7C84" stroke-width="4" stroke-linecap="round" />
  <path d="M200.394 81.2773L176.92 91.5038" stroke="#6B7C84" stroke-width="4" stroke-linecap="round" />
  <path d="M200.481 88.6543L176.833 98.4696" stroke="#6B7C84" stroke-width="4" stroke-linecap="round" />
  <path d="M148.657 105.637L228.657 105.637" stroke="#6B7C84" stroke-width="4" stroke-linecap="round" />
  <path d="M148.657 121.637L148.657 105.637" stroke="#6B7C84" stroke-width="4" stroke-linecap="square" />

  <path d="M148.657 223.637L148.657 207.637" stroke="#6B7C84" stroke-width="4" stroke-linecap="square" />
  <path d="M188.657 121.637L188.657 105.637" stroke="#6B7C84" stroke-width="4" stroke-linecap="square" />

  <path d="M188.657 223.637L188.657 207.637" stroke="#6B7C84" stroke-width="4" stroke-linecap="square" />
  <path d="M228.657 121.637L228.657 105.637" stroke="#6B7C84" stroke-width="4" stroke-linecap="square" />

  <path d="M228.657 223.637L228.657 207.637" stroke="#6B7C84" stroke-width="4" stroke-linecap="square" />

  <path d="M41.9502 349.137L41.9502 339.637" stroke="#6B7C84" stroke-width="4" stroke-linecap="round" />
  <path d="M203.364 349.137L203.364 340.264" stroke="#6B7C84" stroke-width="4" stroke-linecap="round" />
  <path d="M41.9502 349.137L203.364 349.137" stroke="#6B7C84" stroke-width="4" stroke-linecap="round" />
  <path d="M122.658 388.137L122.658 349.137" stroke="#6B7C84" stroke-width="4" stroke-linecap="square" />
  <path d="M134.481 356.307L110.833 366.122" stroke="#6B7C84" stroke-width="4" stroke-linecap="round" />
  <path d="M134.394 363.271L110.92 373.498" stroke="#6B7C84" stroke-width="4" stroke-linecap="round" />
  <path d="M134.481 370.648L110.833 380.464" stroke="#6B7C84" stroke-width="4" stroke-linecap="round" />
  <path d="M46.6699 388.137L198.646 388.137" stroke="#6B7C84" stroke-width="4" stroke-linecap="square" />
  <path fill-rule="evenodd" clip-rule="evenodd"
        d="M48.6572 388.137L48.6572 400.137L44.6572 400.137L44.6572 388.137L48.6572 388.137Z" fill="#6B7C84" />

  <path fill-rule="evenodd" clip-rule="evenodd"
        d="M48.6572 449.473L48.6572 461.473L44.6572 461.473L44.6572 449.473L48.6572 449.473Z" fill="#6B7C84" />
  <rect x="44.6572" y="535.602" width="4" height="10.8711" rx="2" fill="#6B7C84" />




  <path d="M36.6572 474.543V474.574C36.6572 474.558 36.6727 474.558 36.6572 474.543Z" fill="#A31D13" />


  <path
    d="M44.6572 461.473H48.6572V470.36C48.6572 471.465 47.7618 472.36 46.6572 472.36C45.5527 472.36 44.6572 471.465 44.6572 470.36V461.473Z"
    fill="#6B7C84" />

  <path fill-rule="evenodd" clip-rule="evenodd"
        d="M124.657 388.137L124.657 400.137L120.657 400.137L120.657 388.137L124.657 388.137Z" fill="#6B7C84" />

  <path fill-rule="evenodd" clip-rule="evenodd"
        d="M124.657 449.473L124.657 461.473L120.657 461.473L120.657 449.473L124.657 449.473Z" fill="#6B7C84" />


  <rect x="120.659" y="535.492" width="4" height="10.871" rx="2" fill="#6B7C84" />


  <path d="M112.673 522.486V522.532C112.657 522.517 112.673 522.502 112.673 522.486Z" fill="#257024" />


  <path
    d="M120.659 461.363H124.659V470.251C124.659 471.355 123.764 472.251 122.659 472.251C121.555 472.251 120.659 471.355 120.659 470.251V461.363Z"
    fill="#6B7C84" />

  <path fill-rule="evenodd" clip-rule="evenodd"
        d="M200.657 388.137L200.657 400.137L196.657 400.137L196.657 388.137L200.657 388.137Z" fill="#6B7C84" />

  <path fill-rule="evenodd" clip-rule="evenodd"
        d="M200.657 449.473L200.657 461.473L196.657 461.473L196.657 449.473L200.657 449.473Z" fill="#6B7C84" />


  <rect x="196.657" y="535.492" width="4" height="10.8711" rx="2" fill="#6B7C84" />


  <path
    d="M196.657 461.363H200.657V470.251C200.657 471.356 199.762 472.251 198.657 472.251C197.553 472.251 196.657 471.356 196.657 470.251V461.363Z"
    fill="#6B7C84" />

  <path d="M48.1572 627.973L48.1572 606.473" stroke="#6B7C84" stroke-width="4" stroke-linecap="round" />
  <path d="M122.657 627.973L122.657 606.473" stroke="#6B7C84" stroke-width="4" stroke-linecap="round" />
  <path d="M197.157 627.973L197.157 606.473" stroke="#6B7C84" stroke-width="4" stroke-linecap="round" />
  <path d="M48.1572 627.973L197.157 627.973" stroke="#6B7C84" stroke-width="4" stroke-linecap="round" />
  <path d="M122.657 638.723L122.657 627.973" stroke="#6B7C84" stroke-width="4" stroke-linecap="round" />
  <path d="M48.1572 638.723L197.157 638.723" stroke="#6B7C84" stroke-width="4" stroke-linecap="round" />
  <path d="M48.1572 649.473L48.1572 638.723" stroke="#6B7C84" stroke-width="4" stroke-linecap="round" />
  <path d="M197.157 649.473L197.157 638.723" stroke="#6B7C84" stroke-width="4" stroke-linecap="round" />
  <path
    d="M1077.45 19.4956H1074.55L1074.53 17.9792H1077.02C1077.45 17.9792 1077.81 17.9193 1078.1 17.7994C1078.38 17.6796 1078.6 17.505 1078.74 17.2758C1078.9 17.0465 1078.97 16.7677 1078.97 16.4394C1078.97 16.0747 1078.9 15.7776 1078.76 15.5484C1078.62 15.3191 1078.41 15.1523 1078.12 15.0481C1077.83 14.9387 1077.46 14.884 1077.01 14.884H1075.24V24.5684H1073.09V13.1878H1077.01C1077.66 13.1878 1078.23 13.2504 1078.74 13.3754C1079.25 13.4953 1079.68 13.6829 1080.03 13.9382C1080.39 14.1935 1080.66 14.514 1080.84 14.8996C1081.03 15.2852 1081.12 15.7438 1081.12 16.2753C1081.12 16.7442 1081.01 17.1767 1080.79 17.5728C1080.58 17.9636 1080.25 18.2815 1079.8 18.5264C1079.36 18.7713 1078.79 18.912 1078.11 18.9484L1077.45 19.4956ZM1077.36 24.5684H1073.91L1074.81 22.88H1077.36C1077.79 22.88 1078.14 22.8097 1078.42 22.669C1078.7 22.5283 1078.91 22.3355 1079.04 22.0906C1079.18 21.8405 1079.25 21.5539 1079.25 21.2308C1079.25 20.8765 1079.19 20.569 1079.06 20.3085C1078.95 20.0479 1078.75 19.8473 1078.49 19.7066C1078.23 19.5659 1077.88 19.4956 1077.45 19.4956H1075.22L1075.23 17.9792H1078.08L1078.57 18.5654C1079.23 18.5707 1079.76 18.7009 1080.17 18.9563C1080.59 19.2116 1080.9 19.5399 1081.1 19.9411C1081.3 20.3423 1081.39 20.7749 1081.39 21.2386C1081.39 21.9681 1081.24 22.5804 1080.92 23.0754C1080.6 23.5705 1080.15 23.9431 1079.54 24.1932C1078.94 24.4433 1078.22 24.5684 1077.36 24.5684ZM1087.06 24.7247C1086.42 24.7247 1085.84 24.6205 1085.33 24.412C1084.82 24.2036 1084.38 23.9144 1084.02 23.5444C1083.67 23.1692 1083.4 22.7341 1083.2 22.2391C1083.02 21.7389 1082.92 21.2021 1082.92 20.6289V20.3163C1082.92 19.6649 1083.02 19.0735 1083.2 18.542C1083.39 18.0053 1083.66 17.5441 1084 17.1585C1084.34 16.7729 1084.76 16.4759 1085.24 16.2675C1085.72 16.059 1086.24 15.9548 1086.82 15.9548C1087.42 15.9548 1087.95 16.0564 1088.41 16.2596C1088.87 16.4576 1089.25 16.739 1089.56 17.1038C1089.87 17.4686 1090.1 17.9063 1090.25 18.4169C1090.41 18.9224 1090.49 19.4826 1090.49 20.0974V20.965H1083.86V19.5425H1088.46V19.3862C1088.45 19.0579 1088.38 18.7582 1088.27 18.4873C1088.15 18.2111 1087.98 17.9922 1087.74 17.8307C1087.5 17.664 1087.19 17.5806 1086.81 17.5806C1086.5 17.5806 1086.23 17.6483 1086 17.7838C1085.78 17.9141 1085.59 18.1017 1085.44 18.3466C1085.29 18.5863 1085.18 18.8729 1085.11 19.2064C1085.04 19.5399 1085 19.9098 1085 20.3163V20.6289C1085 20.9833 1085.05 21.3116 1085.14 21.6138C1085.24 21.916 1085.38 22.1792 1085.57 22.4032C1085.76 22.6221 1085.99 22.7941 1086.26 22.9191C1086.53 23.039 1086.84 23.0989 1087.18 23.0989C1087.61 23.0989 1088.01 23.0155 1088.35 22.8488C1088.71 22.6768 1089.02 22.4241 1089.28 22.0906L1090.32 23.1692C1090.14 23.4298 1089.9 23.6799 1089.6 23.9196C1089.3 24.1593 1088.94 24.3547 1088.52 24.5058C1088.1 24.6517 1087.61 24.7247 1087.06 24.7247ZM1098.99 16.1111V24.5684H1096.92V16.1111H1098.99ZM1098.05 19.7926V21.4184C1097.85 21.5122 1097.61 21.6008 1097.33 21.6841C1097.06 21.7623 1096.76 21.8248 1096.46 21.8717C1096.15 21.9186 1095.86 21.9421 1095.57 21.9421C1094.8 21.9421 1094.13 21.8274 1093.56 21.5982C1093.01 21.3689 1092.58 21.0172 1092.27 20.543C1091.97 20.0636 1091.82 19.4513 1091.82 18.7061V16.1033H1093.88V18.7061C1093.88 19.1074 1093.94 19.4252 1094.06 19.6597C1094.18 19.8942 1094.37 20.061 1094.62 20.16C1094.87 20.259 1095.19 20.3085 1095.57 20.3085C1095.87 20.3085 1096.15 20.2876 1096.42 20.2459C1096.7 20.199 1096.96 20.1391 1097.23 20.0662C1097.5 19.988 1097.77 19.8968 1098.05 19.7926ZM1104.82 24.7247C1104.18 24.7247 1103.61 24.6205 1103.1 24.412C1102.58 24.2036 1102.15 23.9144 1101.79 23.5444C1101.44 23.1692 1101.16 22.7341 1100.97 22.2391C1100.78 21.7389 1100.69 21.2021 1100.69 20.6289V20.3163C1100.69 19.6649 1100.78 19.0735 1100.97 18.542C1101.16 18.0053 1101.42 17.5441 1101.77 17.1585C1102.11 16.7729 1102.52 16.4759 1103 16.2675C1103.48 16.059 1104.01 15.9548 1104.59 15.9548C1105.19 15.9548 1105.72 16.0564 1106.18 16.2596C1106.63 16.4576 1107.02 16.739 1107.32 17.1038C1107.63 17.4686 1107.86 17.9063 1108.02 18.4169C1108.18 18.9224 1108.25 19.4826 1108.25 20.0974V20.965H1101.63V19.5425H1106.22V19.3862C1106.21 19.0579 1106.15 18.7582 1106.03 18.4873C1105.92 18.2111 1105.74 17.9922 1105.5 17.8307C1105.26 17.664 1104.95 17.5806 1104.57 17.5806C1104.27 17.5806 1104 17.6483 1103.77 17.7838C1103.54 17.9141 1103.36 18.1017 1103.21 18.3466C1103.06 18.5863 1102.95 18.8729 1102.88 19.2064C1102.8 19.5399 1102.77 19.9098 1102.77 20.3163V20.6289C1102.77 20.9833 1102.81 21.3116 1102.91 21.6138C1103.01 21.916 1103.15 22.1792 1103.34 22.4032C1103.53 22.6221 1103.76 22.7941 1104.03 22.9191C1104.3 23.039 1104.6 23.0989 1104.95 23.0989C1105.38 23.0989 1105.77 23.0155 1106.12 22.8488C1106.47 22.6768 1106.78 22.4241 1107.04 22.0906L1108.08 23.1692C1107.91 23.4298 1107.67 23.6799 1107.36 23.9196C1107.07 24.1593 1106.71 24.3547 1106.28 24.5058C1105.86 24.6517 1105.38 24.7247 1104.82 24.7247ZM1111.86 17.7369V27.8199H1109.79V16.1111H1111.71L1111.86 17.7369ZM1117.29 20.2538V20.4179C1117.29 21.0328 1117.22 21.6034 1117.07 22.1297C1116.93 22.6508 1116.73 23.1067 1116.45 23.4975C1116.17 23.8831 1115.83 24.1854 1115.42 24.4042C1115.01 24.6179 1114.54 24.7247 1114.01 24.7247C1113.49 24.7247 1113.04 24.6257 1112.65 24.4277C1112.27 24.2244 1111.94 23.9378 1111.67 23.5679C1111.41 23.1979 1111.19 22.768 1111.03 22.2782C1110.88 21.7832 1110.76 21.2438 1110.68 20.6602V20.1365C1110.76 19.5164 1110.88 18.9537 1111.03 18.4482C1111.19 17.9375 1111.41 17.4972 1111.67 17.1272C1111.94 16.7521 1112.26 16.4629 1112.64 16.2596C1113.03 16.0564 1113.48 15.9548 1114 15.9548C1114.53 15.9548 1115 16.0564 1115.41 16.2596C1115.82 16.4629 1116.17 16.7547 1116.45 17.1351C1116.73 17.5155 1116.94 17.9688 1117.08 18.4951C1117.22 19.0214 1117.29 19.6076 1117.29 20.2538ZM1115.22 20.4179V20.2538C1115.22 19.8786 1115.19 19.5321 1115.12 19.2142C1115.05 18.8911 1114.95 18.6097 1114.81 18.37C1114.67 18.1251 1114.49 17.9349 1114.26 17.7994C1114.04 17.664 1113.77 17.5962 1113.45 17.5962C1113.13 17.5962 1112.86 17.6483 1112.63 17.7525C1112.4 17.8568 1112.21 18.0053 1112.06 18.1981C1111.92 18.3909 1111.8 18.6202 1111.72 18.8859C1111.64 19.1465 1111.59 19.4357 1111.56 19.7535V21.051C1111.61 21.4366 1111.7 21.7832 1111.84 22.0906C1111.97 22.398 1112.17 22.6429 1112.43 22.8253C1112.7 23.0077 1113.04 23.0989 1113.46 23.0989C1113.78 23.0989 1114.05 23.0285 1114.28 22.8879C1114.5 22.7472 1114.68 22.5544 1114.82 22.3094C1114.96 22.0593 1115.07 21.7727 1115.13 21.4497C1115.19 21.1266 1115.22 20.7827 1115.22 20.4179Z"
    fill="black" />
  <path
    d="M1095.95 40.2469L1083.41 77.5684H1074.62L1091.06 33.5684H1096.68L1095.95 40.2469ZM1106.44 77.5684L1093.84 40.2469L1093.08 33.5684H1098.73L1115.26 77.5684H1106.44ZM1105.86 61.2195V67.7772H1082.26V61.2195H1105.86Z"
    fill="#F2C94C" />
  <path
    d="M1084.28 90.8854V92.5737H1078.29V90.8854H1084.28ZM1078.88 86.1878V97.5684H1076.73V86.1878H1078.88ZM1085.87 86.1878V97.5684H1083.73V86.1878H1085.87ZM1087.7 93.4257V93.2616C1087.7 92.6415 1087.79 92.0709 1087.97 91.5498C1088.14 91.0235 1088.4 90.5676 1088.74 90.182C1089.08 89.7964 1089.49 89.4967 1089.98 89.2831C1090.47 89.0642 1091.03 88.9548 1091.65 88.9548C1092.29 88.9548 1092.85 89.0642 1093.34 89.2831C1093.84 89.4967 1094.25 89.7964 1094.59 90.182C1094.93 90.5676 1095.19 91.0235 1095.37 91.5498C1095.54 92.0709 1095.63 92.6415 1095.63 93.2616V93.4257C1095.63 94.0406 1095.54 94.6112 1095.37 95.1375C1095.19 95.6586 1094.93 96.1145 1094.59 96.5053C1094.25 96.8909 1093.84 97.1906 1093.35 97.4042C1092.86 97.6179 1092.3 97.7247 1091.67 97.7247C1091.05 97.7247 1090.48 97.6179 1089.99 97.4042C1089.49 97.1906 1089.08 96.8909 1088.74 96.5053C1088.4 96.1145 1088.14 95.6586 1087.97 95.1375C1087.79 94.6112 1087.7 94.0406 1087.7 93.4257ZM1089.76 93.2616V93.4257C1089.76 93.7957 1089.8 94.1422 1089.87 94.4653C1089.95 94.7884 1090.06 95.0724 1090.21 95.3173C1090.36 95.5622 1090.56 95.755 1090.79 95.8957C1091.04 96.0312 1091.33 96.0989 1091.67 96.0989C1092 96.0989 1092.29 96.0312 1092.53 95.8957C1092.77 95.755 1092.97 95.5622 1093.12 95.3173C1093.27 95.0724 1093.39 94.7884 1093.46 94.4653C1093.53 94.1422 1093.57 93.7957 1093.57 93.4257V93.2616C1093.57 92.8968 1093.53 92.5555 1093.46 92.2376C1093.39 91.9146 1093.27 91.6306 1093.12 91.3857C1092.97 91.1355 1092.77 90.9401 1092.52 90.7994C1092.28 90.6535 1091.99 90.5806 1091.65 90.5806C1091.32 90.5806 1091.03 90.6535 1090.79 90.7994C1090.56 90.9401 1090.36 91.1355 1090.21 91.3857C1090.06 91.6306 1089.95 91.9146 1089.87 92.2376C1089.8 92.5555 1089.76 92.8968 1089.76 93.2616ZM1104.25 89.1111V97.5684H1102.18V89.1111H1104.25ZM1103.31 92.7926V94.4184C1103.11 94.5122 1102.87 94.6008 1102.59 94.6841C1102.32 94.7623 1102.03 94.8248 1101.72 94.8717C1101.42 94.9186 1101.12 94.9421 1100.83 94.9421C1100.06 94.9421 1099.39 94.8274 1098.83 94.5982C1098.27 94.3689 1097.84 94.0172 1097.54 93.543C1097.23 93.0636 1097.08 92.4513 1097.08 91.7061V89.1033H1099.15V91.7061C1099.15 92.1074 1099.21 92.4252 1099.33 92.6597C1099.45 92.8942 1099.63 93.061 1099.88 93.16C1100.13 93.259 1100.45 93.3085 1100.83 93.3085C1101.13 93.3085 1101.42 93.2876 1101.69 93.2459C1101.96 93.199 1102.23 93.1391 1102.49 93.0662C1102.76 92.988 1103.04 92.8968 1103.31 92.7926ZM1107.76 91.714H1110.23C1110.98 91.714 1111.61 91.839 1112.14 92.0891C1112.67 92.334 1113.08 92.678 1113.35 93.1209C1113.63 93.5586 1113.77 94.0667 1113.77 94.6451C1113.77 95.0619 1113.69 95.4501 1113.53 95.8097C1113.38 96.164 1113.15 96.4741 1112.84 96.7398C1112.54 97.0004 1112.17 97.2036 1111.73 97.3495C1111.29 97.4954 1110.79 97.5684 1110.23 97.5684H1106.43V89.1111H1108.5V95.9504H1110.23C1110.59 95.9504 1110.87 95.8905 1111.09 95.7706C1111.3 95.6456 1111.46 95.4866 1111.55 95.2938C1111.65 95.0958 1111.7 94.8848 1111.7 94.6607C1111.7 94.4314 1111.65 94.2178 1111.55 94.0198C1111.46 93.8165 1111.3 93.6524 1111.09 93.5273C1110.87 93.4023 1110.59 93.3397 1110.23 93.3397H1107.76V91.714Z"
    fill="black" />
  <path
    d="M1077.45 221.496H1074.55L1074.53 219.979H1077.02C1077.45 219.979 1077.81 219.919 1078.1 219.799C1078.38 219.68 1078.6 219.505 1078.74 219.276C1078.9 219.046 1078.97 218.768 1078.97 218.439C1078.97 218.075 1078.9 217.778 1078.76 217.548C1078.62 217.319 1078.41 217.152 1078.12 217.048C1077.83 216.939 1077.46 216.884 1077.01 216.884H1075.24V226.568H1073.09V215.188H1077.01C1077.66 215.188 1078.23 215.25 1078.74 215.375C1079.25 215.495 1079.68 215.683 1080.03 215.938C1080.39 216.194 1080.66 216.514 1080.84 216.9C1081.03 217.285 1081.12 217.744 1081.12 218.275C1081.12 218.744 1081.01 219.177 1080.79 219.573C1080.58 219.964 1080.25 220.281 1079.8 220.526C1079.36 220.771 1078.79 220.912 1078.11 220.948L1077.45 221.496ZM1077.36 226.568H1073.91L1074.81 224.88H1077.36C1077.79 224.88 1078.14 224.81 1078.42 224.669C1078.7 224.528 1078.91 224.336 1079.04 224.091C1079.18 223.84 1079.25 223.554 1079.25 223.231C1079.25 222.876 1079.19 222.569 1079.06 222.308C1078.95 222.048 1078.75 221.847 1078.49 221.707C1078.23 221.566 1077.88 221.496 1077.45 221.496H1075.22L1075.23 219.979H1078.08L1078.57 220.565C1079.23 220.571 1079.76 220.701 1080.17 220.956C1080.59 221.212 1080.9 221.54 1081.1 221.941C1081.3 222.342 1081.39 222.775 1081.39 223.239C1081.39 223.968 1081.24 224.58 1080.92 225.075C1080.6 225.57 1080.15 225.943 1079.54 226.193C1078.94 226.443 1078.22 226.568 1077.36 226.568ZM1087.06 226.725C1086.42 226.725 1085.84 226.62 1085.33 226.412C1084.82 226.204 1084.38 225.914 1084.02 225.544C1083.67 225.169 1083.4 224.734 1083.2 224.239C1083.02 223.739 1082.92 223.202 1082.92 222.629V222.316C1082.92 221.665 1083.02 221.074 1083.2 220.542C1083.39 220.005 1083.66 219.544 1084 219.159C1084.34 218.773 1084.76 218.476 1085.24 218.267C1085.72 218.059 1086.24 217.955 1086.82 217.955C1087.42 217.955 1087.95 218.056 1088.41 218.26C1088.87 218.458 1089.25 218.739 1089.56 219.104C1089.87 219.469 1090.1 219.906 1090.25 220.417C1090.41 220.922 1090.49 221.483 1090.49 222.097V222.965H1083.86V221.542H1088.46V221.386C1088.45 221.058 1088.38 220.758 1088.27 220.487C1088.15 220.211 1087.98 219.992 1087.74 219.831C1087.5 219.664 1087.19 219.581 1086.81 219.581C1086.5 219.581 1086.23 219.648 1086 219.784C1085.78 219.914 1085.59 220.102 1085.44 220.347C1085.29 220.586 1085.18 220.873 1085.11 221.206C1085.04 221.54 1085 221.91 1085 222.316V222.629C1085 222.983 1085.05 223.312 1085.14 223.614C1085.24 223.916 1085.38 224.179 1085.57 224.403C1085.76 224.622 1085.99 224.794 1086.26 224.919C1086.53 225.039 1086.84 225.099 1087.18 225.099C1087.61 225.099 1088.01 225.016 1088.35 224.849C1088.71 224.677 1089.02 224.424 1089.28 224.091L1090.32 225.169C1090.14 225.43 1089.9 225.68 1089.6 225.92C1089.3 226.159 1088.94 226.355 1088.52 226.506C1088.1 226.652 1087.61 226.725 1087.06 226.725ZM1098.99 218.111V226.568H1096.92V218.111H1098.99ZM1098.05 221.793V223.418C1097.85 223.512 1097.61 223.601 1097.33 223.684C1097.06 223.762 1096.76 223.825 1096.46 223.872C1096.15 223.919 1095.86 223.942 1095.57 223.942C1094.8 223.942 1094.13 223.827 1093.56 223.598C1093.01 223.369 1092.58 223.017 1092.27 222.543C1091.97 222.064 1091.82 221.451 1091.82 220.706V218.103H1093.88V220.706C1093.88 221.107 1093.94 221.425 1094.06 221.66C1094.18 221.894 1094.37 222.061 1094.62 222.16C1094.87 222.259 1095.19 222.308 1095.57 222.308C1095.87 222.308 1096.15 222.288 1096.42 222.246C1096.7 222.199 1096.96 222.139 1097.23 222.066C1097.5 221.988 1097.77 221.897 1098.05 221.793ZM1104.82 226.725C1104.18 226.725 1103.61 226.62 1103.1 226.412C1102.58 226.204 1102.15 225.914 1101.79 225.544C1101.44 225.169 1101.16 224.734 1100.97 224.239C1100.78 223.739 1100.69 223.202 1100.69 222.629V222.316C1100.69 221.665 1100.78 221.074 1100.97 220.542C1101.16 220.005 1101.42 219.544 1101.77 219.159C1102.11 218.773 1102.52 218.476 1103 218.267C1103.48 218.059 1104.01 217.955 1104.59 217.955C1105.19 217.955 1105.72 218.056 1106.18 218.26C1106.63 218.458 1107.02 218.739 1107.32 219.104C1107.63 219.469 1107.86 219.906 1108.02 220.417C1108.18 220.922 1108.25 221.483 1108.25 222.097V222.965H1101.63V221.542H1106.22V221.386C1106.21 221.058 1106.15 220.758 1106.03 220.487C1105.92 220.211 1105.74 219.992 1105.5 219.831C1105.26 219.664 1104.95 219.581 1104.57 219.581C1104.27 219.581 1104 219.648 1103.77 219.784C1103.54 219.914 1103.36 220.102 1103.21 220.347C1103.06 220.586 1102.95 220.873 1102.88 221.206C1102.8 221.54 1102.77 221.91 1102.77 222.316V222.629C1102.77 222.983 1102.81 223.312 1102.91 223.614C1103.01 223.916 1103.15 224.179 1103.34 224.403C1103.53 224.622 1103.76 224.794 1104.03 224.919C1104.3 225.039 1104.6 225.099 1104.95 225.099C1105.38 225.099 1105.77 225.016 1106.12 224.849C1106.47 224.677 1106.78 224.424 1107.04 224.091L1108.08 225.169C1107.91 225.43 1107.67 225.68 1107.36 225.92C1107.07 226.159 1106.71 226.355 1106.28 226.506C1105.86 226.652 1105.38 226.725 1104.82 226.725ZM1111.86 219.737V229.82H1109.79V218.111H1111.71L1111.86 219.737ZM1117.29 222.254V222.418C1117.29 223.033 1117.22 223.603 1117.07 224.13C1116.93 224.651 1116.73 225.107 1116.45 225.498C1116.17 225.883 1115.83 226.185 1115.42 226.404C1115.01 226.618 1114.54 226.725 1114.01 226.725C1113.49 226.725 1113.04 226.626 1112.65 226.428C1112.27 226.224 1111.94 225.938 1111.67 225.568C1111.41 225.198 1111.19 224.768 1111.03 224.278C1110.88 223.783 1110.76 223.244 1110.68 222.66V222.137C1110.76 221.516 1110.88 220.954 1111.03 220.448C1111.19 219.938 1111.41 219.497 1111.67 219.127C1111.94 218.752 1112.26 218.463 1112.64 218.26C1113.03 218.056 1113.48 217.955 1114 217.955C1114.53 217.955 1115 218.056 1115.41 218.26C1115.82 218.463 1116.17 218.755 1116.45 219.135C1116.73 219.515 1116.94 219.969 1117.08 220.495C1117.22 221.021 1117.29 221.608 1117.29 222.254ZM1115.22 222.418V222.254C1115.22 221.879 1115.19 221.532 1115.12 221.214C1115.05 220.891 1114.95 220.61 1114.81 220.37C1114.67 220.125 1114.49 219.935 1114.26 219.799C1114.04 219.664 1113.77 219.596 1113.45 219.596C1113.13 219.596 1112.86 219.648 1112.63 219.753C1112.4 219.857 1112.21 220.005 1112.06 220.198C1111.92 220.391 1111.8 220.62 1111.72 220.886C1111.64 221.146 1111.59 221.436 1111.56 221.754V223.051C1111.61 223.437 1111.7 223.783 1111.84 224.091C1111.97 224.398 1112.17 224.643 1112.43 224.825C1112.7 225.008 1113.04 225.099 1113.46 225.099C1113.78 225.099 1114.05 225.029 1114.28 224.888C1114.5 224.747 1114.68 224.554 1114.82 224.309C1114.96 224.059 1115.07 223.773 1115.13 223.45C1115.19 223.127 1115.22 222.783 1115.22 222.418Z"
    fill="black" />
  <path
    d="M1095.76 259.956H1084.51L1084.45 254.093H1094.09C1095.75 254.093 1097.13 253.861 1098.23 253.398C1099.34 252.935 1100.18 252.26 1100.74 251.373C1101.33 250.487 1101.62 249.409 1101.62 248.14C1101.62 246.73 1101.35 245.581 1100.8 244.695C1100.28 243.808 1099.45 243.164 1098.32 242.761C1097.2 242.338 1095.77 242.126 1094.03 242.126H1087.2V279.568H1078.89V235.568H1094.03C1096.53 235.568 1098.76 235.81 1100.71 236.294C1102.69 236.757 1104.36 237.482 1105.73 238.469C1107.1 239.457 1108.14 240.696 1108.84 242.186C1109.57 243.677 1109.93 245.45 1109.93 247.505C1109.93 249.318 1109.51 250.991 1108.66 252.522C1107.83 254.033 1106.55 255.262 1104.82 256.208C1103.11 257.155 1100.93 257.699 1098.29 257.84L1095.76 259.956ZM1095.39 279.568H1082.07L1085.54 273.041H1095.39C1097.04 273.041 1098.4 272.769 1099.47 272.225C1100.56 271.681 1101.37 270.936 1101.89 269.989C1102.43 269.022 1102.71 267.914 1102.71 266.665C1102.71 265.295 1102.46 264.106 1101.98 263.099C1101.52 262.091 1100.77 261.316 1099.74 260.772C1098.74 260.228 1097.41 259.956 1095.76 259.956H1087.11L1087.17 254.093H1098.17L1100.08 256.36C1102.62 256.38 1104.68 256.883 1106.27 257.871C1107.88 258.858 1109.07 260.127 1109.84 261.678C1110.6 263.23 1110.99 264.902 1110.99 266.695C1110.99 269.515 1110.37 271.882 1109.14 273.796C1107.93 275.71 1106.16 277.151 1103.82 278.118C1101.51 279.085 1098.7 279.568 1095.39 279.568Z"
    fill="#27AE60" />
  <path
    d="M1084.28 292.885V294.574H1078.29V292.885H1084.28ZM1078.88 288.188V299.568H1076.73V288.188H1078.88ZM1085.87 288.188V299.568H1083.73V288.188H1085.87ZM1087.7 295.426V295.262C1087.7 294.641 1087.79 294.071 1087.97 293.55C1088.14 293.024 1088.4 292.568 1088.74 292.182C1089.08 291.796 1089.49 291.497 1089.98 291.283C1090.47 291.064 1091.03 290.955 1091.65 290.955C1092.29 290.955 1092.85 291.064 1093.34 291.283C1093.84 291.497 1094.25 291.796 1094.59 292.182C1094.93 292.568 1095.19 293.024 1095.37 293.55C1095.54 294.071 1095.63 294.641 1095.63 295.262V295.426C1095.63 296.041 1095.54 296.611 1095.37 297.137C1095.19 297.659 1094.93 298.115 1094.59 298.505C1094.25 298.891 1093.84 299.191 1093.35 299.404C1092.86 299.618 1092.3 299.725 1091.67 299.725C1091.05 299.725 1090.48 299.618 1089.99 299.404C1089.49 299.191 1089.08 298.891 1088.74 298.505C1088.4 298.115 1088.14 297.659 1087.97 297.137C1087.79 296.611 1087.7 296.041 1087.7 295.426ZM1089.76 295.262V295.426C1089.76 295.796 1089.8 296.142 1089.87 296.465C1089.95 296.788 1090.06 297.072 1090.21 297.317C1090.36 297.562 1090.56 297.755 1090.79 297.896C1091.04 298.031 1091.33 298.099 1091.67 298.099C1092 298.099 1092.29 298.031 1092.53 297.896C1092.77 297.755 1092.97 297.562 1093.12 297.317C1093.27 297.072 1093.39 296.788 1093.46 296.465C1093.53 296.142 1093.57 295.796 1093.57 295.426V295.262C1093.57 294.897 1093.53 294.556 1093.46 294.238C1093.39 293.915 1093.27 293.631 1093.12 293.386C1092.97 293.136 1092.77 292.94 1092.52 292.799C1092.28 292.654 1091.99 292.581 1091.65 292.581C1091.32 292.581 1091.03 292.654 1090.79 292.799C1090.56 292.94 1090.36 293.136 1090.21 293.386C1090.06 293.631 1089.95 293.915 1089.87 294.238C1089.8 294.556 1089.76 294.897 1089.76 295.262ZM1104.25 291.111V299.568H1102.18V291.111H1104.25ZM1103.31 294.793V296.418C1103.11 296.512 1102.87 296.601 1102.59 296.684C1102.32 296.762 1102.03 296.825 1101.72 296.872C1101.42 296.919 1101.12 296.942 1100.83 296.942C1100.06 296.942 1099.39 296.827 1098.83 296.598C1098.27 296.369 1097.84 296.017 1097.54 295.543C1097.23 295.064 1097.08 294.451 1097.08 293.706V291.103H1099.15V293.706C1099.15 294.107 1099.21 294.425 1099.33 294.66C1099.45 294.894 1099.63 295.061 1099.88 295.16C1100.13 295.259 1100.45 295.308 1100.83 295.308C1101.13 295.308 1101.42 295.288 1101.69 295.246C1101.96 295.199 1102.23 295.139 1102.49 295.066C1102.76 294.988 1103.04 294.897 1103.31 294.793ZM1107.76 293.714H1110.23C1110.98 293.714 1111.61 293.839 1112.14 294.089C1112.67 294.334 1113.08 294.678 1113.35 295.121C1113.63 295.559 1113.77 296.067 1113.77 296.645C1113.77 297.062 1113.69 297.45 1113.53 297.81C1113.38 298.164 1113.15 298.474 1112.84 298.74C1112.54 299 1112.17 299.204 1111.73 299.35C1111.29 299.495 1110.79 299.568 1110.23 299.568H1106.43V291.111H1108.5V297.95H1110.23C1110.59 297.95 1110.87 297.89 1111.09 297.771C1111.3 297.646 1111.46 297.487 1111.55 297.294C1111.65 297.096 1111.7 296.885 1111.7 296.661C1111.7 296.431 1111.65 296.218 1111.55 296.02C1111.46 295.817 1111.3 295.652 1111.09 295.527C1110.87 295.402 1110.59 295.34 1110.23 295.34H1107.76V293.714Z"
    fill="black" />
  <path
    d="M1077.45 423.498H1074.55L1074.53 421.981H1077.02C1077.45 421.981 1077.81 421.921 1078.1 421.801C1078.38 421.682 1078.6 421.507 1078.74 421.278C1078.9 421.048 1078.97 420.77 1078.97 420.441C1078.97 420.077 1078.9 419.78 1078.76 419.55C1078.62 419.321 1078.41 419.154 1078.12 419.05C1077.83 418.941 1077.46 418.886 1077.01 418.886H1075.24V428.57H1073.09V417.19H1077.01C1077.66 417.19 1078.23 417.252 1078.74 417.377C1079.25 417.497 1079.68 417.685 1080.03 417.94C1080.39 418.195 1080.66 418.516 1080.84 418.902C1081.03 419.287 1081.12 419.746 1081.12 420.277C1081.12 420.746 1081.01 421.179 1080.79 421.575C1080.58 421.966 1080.25 422.283 1079.8 422.528C1079.36 422.773 1078.79 422.914 1078.11 422.95L1077.45 423.498ZM1077.36 428.57H1073.91L1074.81 426.882H1077.36C1077.79 426.882 1078.14 426.812 1078.42 426.671C1078.7 426.53 1078.91 426.337 1079.04 426.093C1079.18 425.842 1079.25 425.556 1079.25 425.233C1079.25 424.878 1079.19 424.571 1079.06 424.31C1078.95 424.05 1078.75 423.849 1078.49 423.709C1078.23 423.568 1077.88 423.498 1077.45 423.498H1075.22L1075.23 421.981H1078.08L1078.57 422.567C1079.23 422.573 1079.76 422.703 1080.17 422.958C1080.59 423.214 1080.9 423.542 1081.1 423.943C1081.3 424.344 1081.39 424.777 1081.39 425.241C1081.39 425.97 1081.24 426.582 1080.92 427.077C1080.6 427.572 1080.15 427.945 1079.54 428.195C1078.94 428.445 1078.22 428.57 1077.36 428.57ZM1087.06 428.727C1086.42 428.727 1085.84 428.622 1085.33 428.414C1084.82 428.206 1084.38 427.916 1084.02 427.546C1083.67 427.171 1083.4 426.736 1083.2 426.241C1083.02 425.741 1082.92 425.204 1082.92 424.631V424.318C1082.92 423.667 1083.02 423.075 1083.2 422.544C1083.39 422.007 1083.66 421.546 1084 421.16C1084.34 420.775 1084.76 420.478 1085.24 420.269C1085.72 420.061 1086.24 419.957 1086.82 419.957C1087.42 419.957 1087.95 420.058 1088.41 420.262C1088.87 420.46 1089.25 420.741 1089.56 421.106C1089.87 421.471 1090.1 421.908 1090.25 422.419C1090.41 422.924 1090.49 423.485 1090.49 424.099V424.967H1083.86V423.544H1088.46V423.388C1088.45 423.06 1088.38 422.76 1088.27 422.489C1088.15 422.213 1087.98 421.994 1087.74 421.833C1087.5 421.666 1087.19 421.583 1086.81 421.583C1086.5 421.583 1086.23 421.65 1086 421.786C1085.78 421.916 1085.59 422.104 1085.44 422.349C1085.29 422.588 1085.18 422.875 1085.11 423.208C1085.04 423.542 1085 423.912 1085 424.318V424.631C1085 424.985 1085.05 425.314 1085.14 425.616C1085.24 425.918 1085.38 426.181 1085.57 426.405C1085.76 426.624 1085.99 426.796 1086.26 426.921C1086.53 427.041 1086.84 427.101 1087.18 427.101C1087.61 427.101 1088.01 427.017 1088.35 426.851C1088.71 426.679 1089.02 426.426 1089.28 426.093L1090.32 427.171C1090.14 427.432 1089.9 427.682 1089.6 427.922C1089.3 428.161 1088.94 428.357 1088.52 428.508C1088.1 428.654 1087.61 428.727 1087.06 428.727ZM1098.99 420.113V428.57H1096.92V420.113H1098.99ZM1098.05 423.795V425.42C1097.85 425.514 1097.61 425.603 1097.33 425.686C1097.06 425.764 1096.76 425.827 1096.46 425.874C1096.15 425.921 1095.86 425.944 1095.57 425.944C1094.8 425.944 1094.13 425.829 1093.56 425.6C1093.01 425.371 1092.58 425.019 1092.27 424.545C1091.97 424.066 1091.82 423.453 1091.82 422.708V420.105H1093.88V422.708C1093.88 423.109 1093.94 423.427 1094.06 423.662C1094.18 423.896 1094.37 424.063 1094.62 424.162C1094.87 424.261 1095.19 424.31 1095.57 424.31C1095.87 424.31 1096.15 424.29 1096.42 424.248C1096.7 424.201 1096.96 424.141 1097.23 424.068C1097.5 423.99 1097.77 423.899 1098.05 423.795ZM1104.82 428.727C1104.18 428.727 1103.61 428.622 1103.1 428.414C1102.58 428.206 1102.15 427.916 1101.79 427.546C1101.44 427.171 1101.16 426.736 1100.97 426.241C1100.78 425.741 1100.69 425.204 1100.69 424.631V424.318C1100.69 423.667 1100.78 423.075 1100.97 422.544C1101.16 422.007 1101.42 421.546 1101.77 421.16C1102.11 420.775 1102.52 420.478 1103 420.269C1103.48 420.061 1104.01 419.957 1104.59 419.957C1105.19 419.957 1105.72 420.058 1106.18 420.262C1106.63 420.46 1107.02 420.741 1107.32 421.106C1107.63 421.471 1107.86 421.908 1108.02 422.419C1108.18 422.924 1108.25 423.485 1108.25 424.099V424.967H1101.63V423.544H1106.22V423.388C1106.21 423.06 1106.15 422.76 1106.03 422.489C1105.92 422.213 1105.74 421.994 1105.5 421.833C1105.26 421.666 1104.95 421.583 1104.57 421.583C1104.27 421.583 1104 421.65 1103.77 421.786C1103.54 421.916 1103.36 422.104 1103.21 422.349C1103.06 422.588 1102.95 422.875 1102.88 423.208C1102.8 423.542 1102.77 423.912 1102.77 424.318V424.631C1102.77 424.985 1102.81 425.314 1102.91 425.616C1103.01 425.918 1103.15 426.181 1103.34 426.405C1103.53 426.624 1103.76 426.796 1104.03 426.921C1104.3 427.041 1104.6 427.101 1104.95 427.101C1105.38 427.101 1105.77 427.017 1106.12 426.851C1106.47 426.679 1106.78 426.426 1107.04 426.093L1108.08 427.171C1107.91 427.432 1107.67 427.682 1107.36 427.922C1107.07 428.161 1106.71 428.357 1106.28 428.508C1105.86 428.654 1105.38 428.727 1104.82 428.727ZM1111.86 421.739V431.822H1109.79V420.113H1111.71L1111.86 421.739ZM1117.29 424.256V424.42C1117.29 425.035 1117.22 425.605 1117.07 426.132C1116.93 426.653 1116.73 427.109 1116.45 427.499C1116.17 427.885 1115.83 428.187 1115.42 428.406C1115.01 428.62 1114.54 428.727 1114.01 428.727C1113.49 428.727 1113.04 428.628 1112.65 428.43C1112.27 428.226 1111.94 427.94 1111.67 427.57C1111.41 427.2 1111.19 426.77 1111.03 426.28C1110.88 425.785 1110.76 425.246 1110.68 424.662V424.138C1110.76 423.518 1110.88 422.956 1111.03 422.45C1111.19 421.939 1111.41 421.499 1111.67 421.129C1111.94 420.754 1112.26 420.465 1112.64 420.262C1113.03 420.058 1113.48 419.957 1114 419.957C1114.53 419.957 1115 420.058 1115.41 420.262C1115.82 420.465 1116.17 420.757 1116.45 421.137C1116.73 421.517 1116.94 421.971 1117.08 422.497C1117.22 423.023 1117.29 423.61 1117.29 424.256ZM1115.22 424.42V424.256C1115.22 423.881 1115.19 423.534 1115.12 423.216C1115.05 422.893 1114.95 422.612 1114.81 422.372C1114.67 422.127 1114.49 421.937 1114.26 421.801C1114.04 421.666 1113.77 421.598 1113.45 421.598C1113.13 421.598 1112.86 421.65 1112.63 421.755C1112.4 421.859 1112.21 422.007 1112.06 422.2C1111.92 422.393 1111.8 422.622 1111.72 422.888C1111.64 423.148 1111.59 423.438 1111.56 423.755V425.053C1111.61 425.439 1111.7 425.785 1111.84 426.093C1111.97 426.4 1112.17 426.645 1112.43 426.827C1112.7 427.01 1113.04 427.101 1113.46 427.101C1113.78 427.101 1114.05 427.031 1114.28 426.89C1114.5 426.749 1114.68 426.556 1114.82 426.311C1114.96 426.061 1115.07 425.775 1115.13 425.452C1115.19 425.129 1115.22 424.785 1115.22 424.42Z"
    fill="black" />
  <path
    d="M1104.07 466.904H1112.15C1111.93 469.764 1111.14 472.302 1109.77 474.516C1108.4 476.711 1106.49 478.435 1104.04 479.689C1101.59 480.943 1098.62 481.57 1095.13 481.57C1092.45 481.57 1090.03 481.1 1087.87 480.159C1085.74 479.199 1083.9 477.838 1082.37 476.074C1080.87 474.291 1079.71 472.155 1078.91 469.667C1078.1 467.158 1077.7 464.347 1077.7 461.231V457.968C1077.7 454.853 1078.11 452.041 1078.94 449.533C1079.76 447.025 1080.93 444.889 1082.46 443.125C1084.01 441.342 1085.86 439.971 1088.02 439.011C1090.19 438.05 1092.62 437.57 1095.31 437.57C1098.79 437.57 1101.74 438.217 1104.15 439.51C1106.56 440.784 1108.44 442.538 1109.77 444.771C1111.1 447.005 1111.9 449.572 1112.18 452.472H1104.1C1103.94 450.669 1103.55 449.141 1102.92 447.887C1102.31 446.633 1101.39 445.683 1100.16 445.036C1098.94 444.37 1097.33 444.037 1095.31 444.037C1093.74 444.037 1092.36 444.33 1091.16 444.918C1089.99 445.506 1089.01 446.388 1088.22 447.564C1087.44 448.72 1086.85 450.17 1086.46 451.914C1086.07 453.638 1085.87 455.637 1085.87 457.91V461.231C1085.87 463.406 1086.05 465.356 1086.4 467.08C1086.75 468.804 1087.3 470.264 1088.05 471.459C1088.79 472.655 1089.75 473.566 1090.93 474.193C1092.1 474.82 1093.5 475.133 1095.13 475.133C1097.11 475.133 1098.72 474.82 1099.95 474.193C1101.21 473.566 1102.16 472.645 1102.8 471.43C1103.47 470.215 1103.89 468.706 1104.07 466.904Z"
    fill="#EB5757" />
  <path
    d="M1084.28 494.887V496.576H1078.29V494.887H1084.28ZM1078.88 490.19V501.57H1076.73V490.19H1078.88ZM1085.87 490.19V501.57H1083.73V490.19H1085.87ZM1087.7 497.428V497.264C1087.7 496.643 1087.79 496.073 1087.97 495.552C1088.14 495.025 1088.4 494.57 1088.74 494.184C1089.08 493.798 1089.49 493.499 1089.98 493.285C1090.47 493.066 1091.03 492.957 1091.65 492.957C1092.29 492.957 1092.85 493.066 1093.34 493.285C1093.84 493.499 1094.25 493.798 1094.59 494.184C1094.93 494.57 1095.19 495.025 1095.37 495.552C1095.54 496.073 1095.63 496.643 1095.63 497.264V497.428C1095.63 498.043 1095.54 498.613 1095.37 499.139C1095.19 499.661 1094.93 500.116 1094.59 500.507C1094.25 500.893 1093.84 501.193 1093.35 501.406C1092.86 501.62 1092.3 501.727 1091.67 501.727C1091.05 501.727 1090.48 501.62 1089.99 501.406C1089.49 501.193 1089.08 500.893 1088.74 500.507C1088.4 500.116 1088.14 499.661 1087.97 499.139C1087.79 498.613 1087.7 498.043 1087.7 497.428ZM1089.76 497.264V497.428C1089.76 497.798 1089.8 498.144 1089.87 498.467C1089.95 498.79 1090.06 499.074 1090.21 499.319C1090.36 499.564 1090.56 499.757 1090.79 499.898C1091.04 500.033 1091.33 500.101 1091.67 500.101C1092 500.101 1092.29 500.033 1092.53 499.898C1092.77 499.757 1092.97 499.564 1093.12 499.319C1093.27 499.074 1093.39 498.79 1093.46 498.467C1093.53 498.144 1093.57 497.798 1093.57 497.428V497.264C1093.57 496.899 1093.53 496.557 1093.46 496.24C1093.39 495.917 1093.27 495.633 1093.12 495.388C1092.97 495.138 1092.77 494.942 1092.52 494.801C1092.28 494.655 1091.99 494.583 1091.65 494.583C1091.32 494.583 1091.03 494.655 1090.79 494.801C1090.56 494.942 1090.36 495.138 1090.21 495.388C1090.06 495.633 1089.95 495.917 1089.87 496.24C1089.8 496.557 1089.76 496.899 1089.76 497.264ZM1104.25 493.113V501.57H1102.18V493.113H1104.25ZM1103.31 496.795V498.42C1103.11 498.514 1102.87 498.603 1102.59 498.686C1102.32 498.764 1102.03 498.827 1101.72 498.874C1101.42 498.921 1101.12 498.944 1100.83 498.944C1100.06 498.944 1099.39 498.829 1098.83 498.6C1098.27 498.371 1097.84 498.019 1097.54 497.545C1097.23 497.066 1097.08 496.453 1097.08 495.708V493.105H1099.15V495.708C1099.15 496.109 1099.21 496.427 1099.33 496.662C1099.45 496.896 1099.63 497.063 1099.88 497.162C1100.13 497.261 1100.45 497.31 1100.83 497.31C1101.13 497.31 1101.42 497.29 1101.69 497.248C1101.96 497.201 1102.23 497.141 1102.49 497.068C1102.76 496.99 1103.04 496.899 1103.31 496.795ZM1107.76 495.716H1110.23C1110.98 495.716 1111.61 495.841 1112.14 496.091C1112.67 496.336 1113.08 496.68 1113.35 497.123C1113.63 497.561 1113.77 498.069 1113.77 498.647C1113.77 499.064 1113.69 499.452 1113.53 499.812C1113.38 500.166 1113.15 500.476 1112.84 500.742C1112.54 501.002 1112.17 501.206 1111.73 501.351C1111.29 501.497 1110.79 501.57 1110.23 501.57H1106.43V493.113H1108.5V499.952H1110.23C1110.59 499.952 1110.87 499.892 1111.09 499.773C1111.3 499.648 1111.46 499.489 1111.55 499.296C1111.65 499.098 1111.7 498.887 1111.7 498.663C1111.7 498.433 1111.65 498.22 1111.55 498.022C1111.46 497.818 1111.3 497.654 1111.09 497.529C1110.87 497.404 1110.59 497.342 1110.23 497.342H1107.76V495.716Z"
    fill="black" />
  <defs>
    <clipPath id="clip0_10754_258698">
      <rect width="9.99998" height="9.99998" fill="white" transform="translate(326.525 147.777)" />
    </clipPath>
    <clipPath id="clip1_10754_258698">
      <rect width="9.99998" height="9.99998" fill="white" transform="translate(370.525 147.777)" />
    </clipPath>
    <clipPath id="clip2_10754_258698">
      <rect width="9.99998" height="9.99998" fill="white" transform="translate(414.525 147.779)" />
    </clipPath>
    <clipPath id="clip3_10754_258698">
      <rect width="9.99998" height="9.99998" fill="white" transform="translate(458.525 147.777)" />
    </clipPath>
    <clipPath id="clip4_10754_258698">
      <rect width="9.99998" height="9.99998" fill="white" transform="translate(502.525 147.777)" />
    </clipPath>
    <clipPath id="clip5_10754_258698">
      <rect width="9.99998" height="9.99998" fill="white" transform="translate(546.525 147.779)" />
    </clipPath>
    <clipPath id="clip6_10754_258698">
      <rect width="9.99998" height="9.99998" fill="white" transform="translate(590.525 147.777)" />
    </clipPath>
    <clipPath id="clip7_10754_258698">
      <rect width="9.99998" height="9.99998" fill="white" transform="translate(634.525 147.777)" />
    </clipPath>
    <clipPath id="clip8_10754_258698">
      <rect width="10" height="10" fill="white" transform="translate(678.525 147.777)" />
    </clipPath>
    <clipPath id="clip9_10754_258698">
      <rect width="9.99998" height="9.99998" fill="white" transform="translate(722.525 147.779)" />
    </clipPath>
    <clipPath id="clip10_10754_258698">
      <rect width="10" height="10" fill="white" transform="translate(766.525 147.777)" />
    </clipPath>
    <clipPath id="clip11_10754_258698">
      <rect width="10" height="10" fill="white" transform="translate(810.525 147.777)" />
    </clipPath>
    <clipPath id="clip12_10754_258698">
      <rect width="10" height="10" fill="white" transform="translate(854.525 147.777)" />
    </clipPath>
    <clipPath id="clip13_10754_258698">
      <rect width="10" height="10" fill="white" transform="translate(898.525 147.777)" />
    </clipPath>
    <clipPath id="clip14_10754_258698">
      <rect width="10" height="10" fill="white" transform="translate(942.525 147.777)" />
    </clipPath>
    <clipPath id="clip15_10754_258698">
      <rect width="10" height="10" fill="white" transform="translate(986.525 147.777)" />
    </clipPath>
    <clipPath id="clip16_10754_258698">
      <rect width="9.99998" height="9.99998" fill="white" transform="translate(326.525 349.777)" />
    </clipPath>
    <clipPath id="clip17_10754_258698">
      <rect width="9.99998" height="9.99998" fill="white" transform="translate(370.525 349.777)" />
    </clipPath>
    <clipPath id="clip18_10754_258698">
      <rect width="9.99998" height="9.99998" fill="white" transform="translate(414.525 349.779)" />
    </clipPath>
    <clipPath id="clip19_10754_258698">
      <rect width="9.99998" height="9.99998" fill="white" transform="translate(458.525 349.777)" />
    </clipPath>
    <clipPath id="clip20_10754_258698">
      <rect width="9.99998" height="9.99998" fill="white" transform="translate(502.525 349.777)" />
    </clipPath>
    <clipPath id="clip21_10754_258698">
      <rect width="9.99998" height="9.99998" fill="white" transform="translate(546.525 349.779)" />
    </clipPath>
    <clipPath id="clip22_10754_258698">
      <rect width="9.99998" height="9.99998" fill="white" transform="translate(590.525 349.777)" />
    </clipPath>
    <clipPath id="clip23_10754_258698">
      <rect width="9.99998" height="9.99998" fill="white" transform="translate(634.525 349.777)" />
    </clipPath>
    <clipPath id="clip24_10754_258698">
      <rect width="10" height="10" fill="white" transform="translate(678.525 349.777)" />
    </clipPath>
    <clipPath id="clip25_10754_258698">
      <rect width="9.99998" height="9.99998" fill="white" transform="translate(722.525 349.779)" />
    </clipPath>
    <clipPath id="clip26_10754_258698">
      <rect width="10" height="10" fill="white" transform="translate(766.525 349.777)" />
    </clipPath>
    <clipPath id="clip27_10754_258698">
      <rect width="10" height="10" fill="white" transform="translate(810.525 349.777)" />
    </clipPath>
    <clipPath id="clip28_10754_258698">
      <rect width="10" height="10" fill="white" transform="translate(854.525 349.777)" />
    </clipPath>
    <clipPath id="clip29_10754_258698">
      <rect width="10" height="10" fill="white" transform="translate(898.525 349.777)" />
    </clipPath>
    <clipPath id="clip30_10754_258698">
      <rect width="10" height="10" fill="white" transform="translate(942.525 349.777)" />
    </clipPath>
    <clipPath id="clip31_10754_258698">
      <rect width="10" height="10" fill="white" transform="translate(986.525 349.777)" />
    </clipPath>
    <clipPath id="clip32_10754_258698">
      <rect width="9.99998" height="9.99998" fill="white" transform="translate(326.525 551.779)" />
    </clipPath>
    <clipPath id="clip33_10754_258698">
      <rect width="9.99998" height="9.99998" fill="white" transform="translate(370.525 551.779)" />
    </clipPath>
    <clipPath id="clip34_10754_258698">
      <rect width="9.99998" height="9.99998" fill="white" transform="translate(414.525 551.781)" />
    </clipPath>
    <clipPath id="clip35_10754_258698">
      <rect width="9.99998" height="9.99998" fill="white" transform="translate(458.525 551.779)" />
    </clipPath>
    <clipPath id="clip36_10754_258698">
      <rect width="9.99998" height="9.99998" fill="white" transform="translate(502.525 551.779)" />
    </clipPath>
    <clipPath id="clip37_10754_258698">
      <rect width="9.99998" height="9.99998" fill="white" transform="translate(546.525 551.781)" />
    </clipPath>
    <clipPath id="clip38_10754_258698">
      <rect width="9.99998" height="9.99998" fill="white" transform="translate(590.525 551.779)" />
    </clipPath>
    <clipPath id="clip39_10754_258698">
      <rect width="9.99998" height="9.99998" fill="white" transform="translate(634.525 551.779)" />
    </clipPath>
    <clipPath id="clip40_10754_258698">
      <rect width="10" height="10" fill="white" transform="translate(678.525 551.779)" />
    </clipPath>
    <clipPath id="clip41_10754_258698">
      <rect width="9.99998" height="9.99998" fill="white" transform="translate(722.525 551.781)" />
    </clipPath>
    <clipPath id="clip42_10754_258698">
      <rect width="10" height="10" fill="white" transform="translate(766.525 551.779)" />
    </clipPath>
    <clipPath id="clip43_10754_258698">
      <rect width="10" height="10" fill="white" transform="translate(810.525 551.779)" />
    </clipPath>
    <clipPath id="clip44_10754_258698">
      <rect width="10" height="10" fill="white" transform="translate(854.525 551.779)" />
    </clipPath>
    <clipPath id="clip45_10754_258698">
      <rect width="10" height="10" fill="white" transform="translate(898.525 551.779)" />
    </clipPath>
    <clipPath id="clip46_10754_258698">
      <rect width="10" height="10" fill="white" transform="translate(942.525 551.779)" />
    </clipPath>
    <clipPath id="clip47_10754_258698">
      <rect width="10" height="10" fill="white" transform="translate(986.525 551.779)" />
    </clipPath>
    <clipPath id="clip48_10754_258698">
      <rect width="14" height="14" fill="white" transform="translate(15.8535 236.348)" />
    </clipPath>
    <clipPath id="clip49_10754_258698">
      <rect width="14" height="14" fill="white" transform="translate(147.854 236.348)" />
    </clipPath>
    <clipPath id="clip50_10754_258698">
      <rect width="11.4286" height="11.4286" fill="white" transform="translate(69.2334 471.188)" />
    </clipPath>
    <clipPath id="clip51_10754_258698">
      <rect width="11.4286" height="11.4286" fill="white" transform="translate(145.233 471.188)" />
    </clipPath>
    <clipPath id="clip52_10754_258698">
      <rect width="11.4286" height="11.4286" fill="white" transform="translate(221.233 471.188)" />
    </clipPath>
    <clipPath id="clip53_10754_258698">
      <rect width="20.5714" height="20.5714" fill="white" transform="translate(218.376 494.9)" />
    </clipPath>
    <clipPath id="clip54_10754_258698">
      <rect x="1.53223" y="649.473" width="242.25" height="60.8" rx="15.2" fill="white" />
    </clipPath>
  </defs>
</svg>
