<svg width="1130" height="711" viewBox="0 0 1130 711" fill="none" xmlns="http://www.w3.org/2000/svg">

  <path d="M293.843 43.9199L1059.87 43.92" stroke="#6B7C84" stroke-width="4" stroke-linecap="square" />
  <path d="M293.843 67.9199L1059.88 67.9201" stroke="#6B7C84" stroke-width="4" stroke-linecap="square" />
  <rect x="1059.35" y="1.48633" width="69.9924" height="108.829" rx="16.5" fill="white" />
  <rect x="1059.35" y="1.48633" width="69.9924" height="108.829" rx="16.5" stroke="#71B8FF" />
  <path
    d="M1076.86 19.8276H1073.95L1073.94 18.3113H1076.43C1076.86 18.3113 1077.22 18.2513 1077.5 18.1315C1077.79 18.0116 1078.01 17.8371 1078.15 17.6078C1078.3 17.3785 1078.38 17.0997 1078.38 16.7714C1078.38 16.4067 1078.31 16.1097 1078.17 15.8804C1078.03 15.6511 1077.82 15.4844 1077.53 15.3801C1077.23 15.2707 1076.86 15.216 1076.42 15.216H1074.65V24.9004H1072.5V13.5199H1076.42C1077.06 13.5199 1077.64 13.5824 1078.14 13.7075C1078.65 13.8273 1079.09 14.0149 1079.44 14.2702C1079.8 14.5256 1080.06 14.846 1080.25 15.2316C1080.43 15.6172 1080.53 16.0758 1080.53 16.6073C1080.53 17.0763 1080.42 17.5088 1080.2 17.9048C1079.99 18.2956 1079.65 18.6135 1079.21 18.8584C1078.76 19.1033 1078.2 19.244 1077.52 19.2805L1076.86 19.8276ZM1076.77 24.9004H1073.32L1074.22 23.2121H1076.77C1077.2 23.2121 1077.55 23.1417 1077.82 23.001C1078.1 22.8603 1078.31 22.6675 1078.45 22.4226C1078.59 22.1725 1078.66 21.8859 1078.66 21.5628C1078.66 21.2085 1078.6 20.9011 1078.47 20.6405C1078.35 20.38 1078.16 20.1793 1077.89 20.0387C1077.63 19.898 1077.29 19.8276 1076.86 19.8276H1074.63L1074.64 18.3113H1077.49L1077.98 18.8975C1078.64 18.9027 1079.17 19.033 1079.58 19.2883C1080 19.5436 1080.31 19.8719 1080.5 20.2731C1080.7 20.6744 1080.8 21.1069 1080.8 21.5706C1080.8 22.3002 1080.64 22.9124 1080.32 23.4075C1080.01 23.9025 1079.55 24.2751 1078.95 24.5252C1078.35 24.7753 1077.62 24.9004 1076.77 24.9004ZM1086.46 25.0567C1085.82 25.0567 1085.25 24.9525 1084.74 24.7441C1084.23 24.5356 1083.79 24.2464 1083.43 23.8765C1083.08 23.5013 1082.8 23.0662 1082.61 22.5711C1082.42 22.0709 1082.33 21.5342 1082.33 20.961V20.6483C1082.33 19.997 1082.42 19.4055 1082.61 18.874C1082.8 18.3373 1083.06 17.8761 1083.41 17.4905C1083.75 17.1049 1084.16 16.8079 1084.64 16.5995C1085.12 16.391 1085.65 16.2868 1086.23 16.2868C1086.83 16.2868 1087.36 16.3884 1087.82 16.5917C1088.27 16.7897 1088.66 17.0711 1088.97 17.4358C1089.27 17.8006 1089.5 18.2383 1089.66 18.749C1089.82 19.2544 1089.9 19.8146 1089.9 20.4295V21.2971H1083.27V19.8745H1087.86V19.7182C1087.85 19.3899 1087.79 19.0903 1087.68 18.8193C1087.56 18.5431 1087.38 18.3243 1087.14 18.1627C1086.9 17.996 1086.59 17.9126 1086.21 17.9126C1085.91 17.9126 1085.64 17.9804 1085.41 18.1158C1085.18 18.2461 1085 18.4337 1084.85 18.6786C1084.7 18.9183 1084.59 19.2049 1084.52 19.5384C1084.44 19.8719 1084.41 20.2419 1084.41 20.6483V20.961C1084.41 21.3153 1084.46 21.6436 1084.55 21.9458C1084.65 22.2481 1084.79 22.5112 1084.98 22.7353C1085.17 22.9541 1085.4 23.1261 1085.67 23.2512C1085.94 23.371 1086.25 23.4309 1086.59 23.4309C1087.02 23.4309 1087.41 23.3476 1087.76 23.1808C1088.12 23.0088 1088.42 22.7561 1088.68 22.4226L1089.72 23.5013C1089.55 23.7618 1089.31 24.0119 1089 24.2516C1088.71 24.4913 1088.35 24.6867 1087.93 24.8379C1087.5 24.9838 1087.02 25.0567 1086.46 25.0567ZM1098.4 16.4432V24.9004H1096.32V16.4432H1098.4ZM1097.46 20.1246V21.7504C1097.26 21.8442 1097.02 21.9328 1096.74 22.0162C1096.46 22.0943 1096.17 22.1569 1095.86 22.2038C1095.56 22.2507 1095.27 22.2741 1094.98 22.2741C1094.2 22.2741 1093.53 22.1595 1092.97 21.9302C1092.41 21.7009 1091.98 21.3492 1091.68 20.875C1091.38 20.3956 1091.23 19.7833 1091.23 19.0382V16.4353H1093.29V19.0382C1093.29 19.4394 1093.35 19.7573 1093.47 19.9918C1093.59 20.2262 1093.78 20.393 1094.03 20.492C1094.28 20.591 1094.59 20.6405 1094.98 20.6405C1095.28 20.6405 1095.56 20.6197 1095.83 20.578C1096.1 20.5311 1096.37 20.4712 1096.64 20.3982C1096.91 20.32 1097.18 20.2289 1097.46 20.1246ZM1104.23 25.0567C1103.59 25.0567 1103.01 24.9525 1102.5 24.7441C1101.99 24.5356 1101.56 24.2464 1101.2 23.8765C1100.84 23.5013 1100.57 23.0662 1100.38 22.5711C1100.19 22.0709 1100.1 21.5342 1100.1 20.961V20.6483C1100.1 19.997 1100.19 19.4055 1100.38 18.874C1100.56 18.3373 1100.83 17.8761 1101.17 17.4905C1101.52 17.1049 1101.93 16.8079 1102.41 16.5995C1102.89 16.391 1103.42 16.2868 1104 16.2868C1104.59 16.2868 1105.12 16.3884 1105.58 16.5917C1106.04 16.7897 1106.42 17.0711 1106.73 17.4358C1107.04 17.8006 1107.27 18.2383 1107.43 18.749C1107.58 19.2544 1107.66 19.8146 1107.66 20.4295V21.2971H1101.03V19.8745H1105.63V19.7182C1105.62 19.3899 1105.56 19.0903 1105.44 18.8193C1105.33 18.5431 1105.15 18.3243 1104.91 18.1627C1104.67 17.996 1104.36 17.9126 1103.98 17.9126C1103.67 17.9126 1103.4 17.9804 1103.18 18.1158C1102.95 18.2461 1102.76 18.4337 1102.61 18.6786C1102.47 18.9183 1102.36 19.2049 1102.28 19.5384C1102.21 19.8719 1102.17 20.2419 1102.17 20.6483V20.961C1102.17 21.3153 1102.22 21.6436 1102.32 21.9458C1102.41 22.2481 1102.56 22.5112 1102.75 22.7353C1102.94 22.9541 1103.17 23.1261 1103.43 23.2512C1103.7 23.371 1104.01 23.4309 1104.36 23.4309C1104.79 23.4309 1105.18 23.3476 1105.53 23.1808C1105.88 23.0088 1106.19 22.7561 1106.45 22.4226L1107.49 23.5013C1107.31 23.7618 1107.07 24.0119 1106.77 24.2516C1106.47 24.4913 1106.11 24.6867 1105.69 24.8379C1105.27 24.9838 1104.78 25.0567 1104.23 25.0567ZM1111.27 18.0689V28.152H1109.2V16.4432H1111.11L1111.27 18.0689ZM1116.7 20.5858V20.7499C1116.7 21.3648 1116.63 21.9354 1116.48 22.4617C1116.34 22.9828 1116.13 23.4387 1115.86 23.8296C1115.58 24.2152 1115.24 24.5174 1114.83 24.7362C1114.42 24.9499 1113.95 25.0567 1113.42 25.0567C1112.9 25.0567 1112.44 24.9577 1112.06 24.7597C1111.67 24.5565 1111.35 24.2699 1111.08 23.8999C1110.82 23.5299 1110.6 23.1 1110.44 22.6102C1110.28 22.1152 1110.17 21.5759 1110.09 20.9922V20.4686C1110.17 19.8485 1110.28 19.2857 1110.44 18.7802C1110.6 18.2696 1110.82 17.8292 1111.08 17.4593C1111.35 17.0841 1111.67 16.7949 1112.05 16.5917C1112.44 16.3884 1112.89 16.2868 1113.4 16.2868C1113.94 16.2868 1114.41 16.3884 1114.82 16.5917C1115.23 16.7949 1115.58 17.0867 1115.86 17.4671C1116.14 17.8475 1116.35 18.3008 1116.49 18.8271C1116.63 19.3534 1116.7 19.9396 1116.7 20.5858ZM1114.63 20.7499V20.5858C1114.63 20.2106 1114.6 19.8641 1114.53 19.5462C1114.46 19.2232 1114.36 18.9418 1114.22 18.7021C1114.07 18.4572 1113.89 18.267 1113.67 18.1315C1113.44 17.996 1113.17 17.9283 1112.86 17.9283C1112.54 17.9283 1112.26 17.9804 1112.03 18.0846C1111.81 18.1888 1111.62 18.3373 1111.47 18.5301C1111.33 18.7229 1111.21 18.9522 1111.13 19.2179C1111.05 19.4785 1111 19.7677 1110.97 20.0856V21.3831C1111.02 21.7687 1111.11 22.1152 1111.25 22.4226C1111.38 22.7301 1111.58 22.975 1111.84 23.1574C1112.1 23.3397 1112.45 23.4309 1112.87 23.4309C1113.19 23.4309 1113.46 23.3606 1113.68 23.2199C1113.91 23.0792 1114.09 22.8864 1114.23 22.6415C1114.37 22.3914 1114.47 22.1048 1114.54 21.7817C1114.6 21.4586 1114.63 21.1147 1114.63 20.7499Z"
    fill="black" />
  <path
    d="M1095.36 40.579L1082.82 77.9004H1074.02L1090.46 33.9004H1096.08L1095.36 40.579ZM1105.85 77.9004L1093.24 40.579L1092.49 33.9004H1098.14L1114.67 77.9004H1105.85ZM1105.27 61.5515V68.1092H1081.67V61.5515H1105.27Z"
    fill="#F2C94C" />
  <path
    d="M1083.69 91.2175V92.9058H1077.7V91.2175H1083.69ZM1078.29 86.5199V97.9004H1076.14V86.5199H1078.29ZM1085.28 86.5199V97.9004H1083.13V86.5199H1085.28ZM1087.11 93.7578V93.5936C1087.11 92.9735 1087.2 92.4029 1087.37 91.8818C1087.55 91.3555 1087.81 90.8996 1088.15 90.514C1088.49 90.1284 1088.9 89.8288 1089.39 89.6151C1089.88 89.3963 1090.44 89.2868 1091.06 89.2868C1091.7 89.2868 1092.26 89.3963 1092.75 89.6151C1093.25 89.8288 1093.66 90.1284 1094 90.514C1094.34 90.8996 1094.6 91.3555 1094.77 91.8818C1094.95 92.4029 1095.04 92.9735 1095.04 93.5936V93.7578C1095.04 94.3726 1094.95 94.9432 1094.77 95.4695C1094.6 95.9906 1094.34 96.4466 1094 96.8374C1093.66 97.223 1093.25 97.5226 1092.76 97.7362C1092.27 97.9499 1091.71 98.0567 1091.08 98.0567C1090.45 98.0567 1089.89 97.9499 1089.4 97.7362C1088.9 97.5226 1088.49 97.223 1088.15 96.8374C1087.81 96.4466 1087.55 95.9906 1087.37 95.4695C1087.2 94.9432 1087.11 94.3726 1087.11 93.7578ZM1089.17 93.5936V93.7578C1089.17 94.1277 1089.21 94.4742 1089.28 94.7973C1089.35 95.1204 1089.46 95.4044 1089.62 95.6493C1089.77 95.8942 1089.96 96.087 1090.2 96.2277C1090.45 96.3632 1090.74 96.4309 1091.08 96.4309C1091.41 96.4309 1091.7 96.3632 1091.94 96.2277C1092.18 96.087 1092.37 95.8942 1092.52 95.6493C1092.68 95.4044 1092.79 95.1204 1092.87 94.7973C1092.94 94.4742 1092.98 94.1277 1092.98 93.7578V93.5936C1092.98 93.2289 1092.94 92.8875 1092.87 92.5697C1092.79 92.2466 1092.68 91.9626 1092.52 91.7177C1092.37 91.4676 1092.17 91.2722 1091.93 91.1315C1091.69 90.9856 1091.4 90.9126 1091.06 90.9126C1090.73 90.9126 1090.44 90.9856 1090.2 91.1315C1089.96 91.2722 1089.77 91.4676 1089.62 91.7177C1089.46 91.9626 1089.35 92.2466 1089.28 92.5697C1089.21 92.8875 1089.17 93.2289 1089.17 93.5936ZM1103.66 89.4432V97.9004H1101.59V89.4432H1103.66ZM1102.72 93.1246V94.7504C1102.52 94.8442 1102.28 94.9328 1102 95.0162C1101.72 95.0943 1101.43 95.1569 1101.13 95.2038C1100.82 95.2507 1100.53 95.2741 1100.24 95.2741C1099.47 95.2741 1098.8 95.1595 1098.23 94.9302C1097.68 94.7009 1097.25 94.3492 1096.94 93.875C1096.64 93.3956 1096.49 92.7833 1096.49 92.0382V89.4353H1098.55V92.0382C1098.55 92.4394 1098.61 92.7573 1098.73 92.9918C1098.85 93.2262 1099.04 93.393 1099.29 93.492C1099.54 93.591 1099.86 93.6405 1100.24 93.6405C1100.54 93.6405 1100.82 93.6197 1101.09 93.578C1101.36 93.5311 1101.63 93.4712 1101.9 93.3982C1102.17 93.32 1102.44 93.2289 1102.72 93.1246ZM1107.16 92.046H1109.63C1110.38 92.046 1111.02 92.171 1111.55 92.4212C1112.08 92.6661 1112.48 93.01 1112.76 93.4529C1113.04 93.8906 1113.18 94.3987 1113.18 94.9771C1113.18 95.394 1113.1 95.7822 1112.94 96.1417C1112.78 96.4961 1112.55 96.8061 1112.25 97.0719C1111.95 97.3324 1111.58 97.5356 1111.13 97.6815C1110.7 97.8274 1110.2 97.9004 1109.63 97.9004H1105.83V89.4432H1107.91V96.2824H1109.63C1109.99 96.2824 1110.28 96.2225 1110.49 96.1026C1110.71 95.9776 1110.87 95.8187 1110.96 95.6258C1111.06 95.4278 1111.11 95.2168 1111.11 94.9927C1111.11 94.7635 1111.06 94.5498 1110.96 94.3518C1110.87 94.1486 1110.71 93.9844 1110.49 93.8594C1110.28 93.7343 1109.99 93.6718 1109.63 93.6718H1107.16V92.046Z"
    fill="black" />

  <path d="M293.843 245.92L1059.87 245.92" stroke="#6B7C84" stroke-width="4" stroke-linecap="square" />
  <path d="M293.843 269.92L1059.88 269.92" stroke="#6B7C84" stroke-width="4" stroke-linecap="square" />
  <rect x="1059.35" y="203.486" width="69.9924" height="108.829" rx="16.5" fill="white" />
  <rect x="1059.35" y="203.486" width="69.9924" height="108.829" rx="16.5" stroke="#71B8FF" />
  <path
    d="M1076.86 221.828H1073.95L1073.94 220.311H1076.43C1076.86 220.311 1077.22 220.251 1077.5 220.131C1077.79 220.012 1078.01 219.837 1078.15 219.608C1078.3 219.379 1078.38 219.1 1078.38 218.771C1078.38 218.407 1078.31 218.11 1078.17 217.88C1078.03 217.651 1077.82 217.484 1077.53 217.38C1077.23 217.271 1076.86 217.216 1076.42 217.216H1074.65V226.9H1072.5V215.52H1076.42C1077.06 215.52 1077.64 215.582 1078.14 215.707C1078.65 215.827 1079.09 216.015 1079.44 216.27C1079.8 216.526 1080.06 216.846 1080.25 217.232C1080.43 217.617 1080.53 218.076 1080.53 218.607C1080.53 219.076 1080.42 219.509 1080.2 219.905C1079.99 220.296 1079.65 220.613 1079.21 220.858C1078.76 221.103 1078.2 221.244 1077.52 221.28L1076.86 221.828ZM1076.77 226.9H1073.32L1074.22 225.212H1076.77C1077.2 225.212 1077.55 225.142 1077.82 225.001C1078.1 224.86 1078.31 224.668 1078.45 224.423C1078.59 224.173 1078.66 223.886 1078.66 223.563C1078.66 223.208 1078.6 222.901 1078.47 222.641C1078.35 222.38 1078.16 222.179 1077.89 222.039C1077.63 221.898 1077.29 221.828 1076.86 221.828H1074.63L1074.64 220.311H1077.49L1077.98 220.897C1078.64 220.903 1079.17 221.033 1079.58 221.288C1080 221.544 1080.31 221.872 1080.5 222.273C1080.7 222.674 1080.8 223.107 1080.8 223.571C1080.8 224.3 1080.64 224.912 1080.32 225.407C1080.01 225.903 1079.55 226.275 1078.95 226.525C1078.35 226.775 1077.62 226.9 1076.77 226.9ZM1086.46 227.057C1085.82 227.057 1085.25 226.952 1084.74 226.744C1084.23 226.536 1083.79 226.246 1083.43 225.876C1083.08 225.501 1082.8 225.066 1082.61 224.571C1082.42 224.071 1082.33 223.534 1082.33 222.961V222.648C1082.33 221.997 1082.42 221.406 1082.61 220.874C1082.8 220.337 1083.06 219.876 1083.41 219.491C1083.75 219.105 1084.16 218.808 1084.64 218.599C1085.12 218.391 1085.65 218.287 1086.23 218.287C1086.83 218.287 1087.36 218.388 1087.82 218.592C1088.27 218.79 1088.66 219.071 1088.97 219.436C1089.27 219.801 1089.5 220.238 1089.66 220.749C1089.82 221.254 1089.9 221.815 1089.9 222.429V223.297H1083.27V221.875H1087.86V221.718C1087.85 221.39 1087.79 221.09 1087.68 220.819C1087.56 220.543 1087.38 220.324 1087.14 220.163C1086.9 219.996 1086.59 219.913 1086.21 219.913C1085.91 219.913 1085.64 219.98 1085.41 220.116C1085.18 220.246 1085 220.434 1084.85 220.679C1084.7 220.918 1084.59 221.205 1084.52 221.538C1084.44 221.872 1084.41 222.242 1084.41 222.648V222.961C1084.41 223.315 1084.46 223.644 1084.55 223.946C1084.65 224.248 1084.79 224.511 1084.98 224.735C1085.17 224.954 1085.4 225.126 1085.67 225.251C1085.94 225.371 1086.25 225.431 1086.59 225.431C1087.02 225.431 1087.41 225.348 1087.76 225.181C1088.12 225.009 1088.42 224.756 1088.68 224.423L1089.72 225.501C1089.55 225.762 1089.31 226.012 1089 226.252C1088.71 226.491 1088.35 226.687 1087.93 226.838C1087.5 226.984 1087.02 227.057 1086.46 227.057ZM1098.4 218.443V226.9H1096.32V218.443H1098.4ZM1097.46 222.125V223.75C1097.26 223.844 1097.02 223.933 1096.74 224.016C1096.46 224.094 1096.17 224.157 1095.86 224.204C1095.56 224.251 1095.27 224.274 1094.98 224.274C1094.2 224.274 1093.53 224.159 1092.97 223.93C1092.41 223.701 1091.98 223.349 1091.68 222.875C1091.38 222.396 1091.23 221.783 1091.23 221.038V218.435H1093.29V221.038C1093.29 221.439 1093.35 221.757 1093.47 221.992C1093.59 222.226 1093.78 222.393 1094.03 222.492C1094.28 222.591 1094.59 222.641 1094.98 222.641C1095.28 222.641 1095.56 222.62 1095.83 222.578C1096.1 222.531 1096.37 222.471 1096.64 222.398C1096.91 222.32 1097.18 222.229 1097.46 222.125ZM1104.23 227.057C1103.59 227.057 1103.01 226.952 1102.5 226.744C1101.99 226.536 1101.56 226.246 1101.2 225.876C1100.84 225.501 1100.57 225.066 1100.38 224.571C1100.19 224.071 1100.1 223.534 1100.1 222.961V222.648C1100.1 221.997 1100.19 221.406 1100.38 220.874C1100.56 220.337 1100.83 219.876 1101.17 219.491C1101.52 219.105 1101.93 218.808 1102.41 218.599C1102.89 218.391 1103.42 218.287 1104 218.287C1104.59 218.287 1105.12 218.388 1105.58 218.592C1106.04 218.79 1106.42 219.071 1106.73 219.436C1107.04 219.801 1107.27 220.238 1107.43 220.749C1107.58 221.254 1107.66 221.815 1107.66 222.429V223.297H1101.03V221.875H1105.63V221.718C1105.62 221.39 1105.56 221.09 1105.44 220.819C1105.33 220.543 1105.15 220.324 1104.91 220.163C1104.67 219.996 1104.36 219.913 1103.98 219.913C1103.67 219.913 1103.4 219.98 1103.18 220.116C1102.95 220.246 1102.76 220.434 1102.61 220.679C1102.47 220.918 1102.36 221.205 1102.28 221.538C1102.21 221.872 1102.17 222.242 1102.17 222.648V222.961C1102.17 223.315 1102.22 223.644 1102.32 223.946C1102.41 224.248 1102.56 224.511 1102.75 224.735C1102.94 224.954 1103.17 225.126 1103.43 225.251C1103.7 225.371 1104.01 225.431 1104.36 225.431C1104.79 225.431 1105.18 225.348 1105.53 225.181C1105.88 225.009 1106.19 224.756 1106.45 224.423L1107.49 225.501C1107.31 225.762 1107.07 226.012 1106.77 226.252C1106.47 226.491 1106.11 226.687 1105.69 226.838C1105.27 226.984 1104.78 227.057 1104.23 227.057ZM1111.27 220.069V230.152H1109.2V218.443H1111.11L1111.27 220.069ZM1116.7 222.586V222.75C1116.7 223.365 1116.63 223.935 1116.48 224.462C1116.34 224.983 1116.13 225.439 1115.86 225.83C1115.58 226.215 1115.24 226.517 1114.83 226.736C1114.42 226.95 1113.95 227.057 1113.42 227.057C1112.9 227.057 1112.44 226.958 1112.06 226.76C1111.67 226.556 1111.35 226.27 1111.08 225.9C1110.82 225.53 1110.6 225.1 1110.44 224.61C1110.28 224.115 1110.17 223.576 1110.09 222.992V222.469C1110.17 221.848 1110.28 221.286 1110.44 220.78C1110.6 220.27 1110.82 219.829 1111.08 219.459C1111.35 219.084 1111.67 218.795 1112.05 218.592C1112.44 218.388 1112.89 218.287 1113.4 218.287C1113.94 218.287 1114.41 218.388 1114.82 218.592C1115.23 218.795 1115.58 219.087 1115.86 219.467C1116.14 219.847 1116.35 220.301 1116.49 220.827C1116.63 221.353 1116.7 221.94 1116.7 222.586ZM1114.63 222.75V222.586C1114.63 222.211 1114.6 221.864 1114.53 221.546C1114.46 221.223 1114.36 220.942 1114.22 220.702C1114.07 220.457 1113.89 220.267 1113.67 220.131C1113.44 219.996 1113.17 219.928 1112.86 219.928C1112.54 219.928 1112.26 219.98 1112.03 220.085C1111.81 220.189 1111.62 220.337 1111.47 220.53C1111.33 220.723 1111.21 220.952 1111.13 221.218C1111.05 221.478 1111 221.768 1110.97 222.086V223.383C1111.02 223.769 1111.11 224.115 1111.25 224.423C1111.38 224.73 1111.58 224.975 1111.84 225.157C1112.1 225.34 1112.45 225.431 1112.87 225.431C1113.19 225.431 1113.46 225.361 1113.68 225.22C1113.91 225.079 1114.09 224.886 1114.23 224.641C1114.37 224.391 1114.47 224.105 1114.54 223.782C1114.6 223.459 1114.63 223.115 1114.63 222.75Z"
    fill="black" />
  <path
    d="M1095.16 260.288H1083.92L1083.86 254.425H1093.5C1095.15 254.425 1096.53 254.193 1097.64 253.73C1098.75 253.267 1099.58 252.592 1100.15 251.705C1100.73 250.819 1101.03 249.741 1101.03 248.472C1101.03 247.062 1100.75 245.913 1100.21 245.027C1099.69 244.14 1098.86 243.496 1097.73 243.093C1096.6 242.67 1095.17 242.458 1093.44 242.458H1086.61V279.9H1078.3V235.9H1093.44C1095.94 235.9 1098.16 236.142 1100.12 236.626C1102.09 237.089 1103.77 237.814 1105.13 238.801C1106.5 239.789 1107.54 241.028 1108.25 242.519C1108.97 244.009 1109.34 245.782 1109.34 247.837C1109.34 249.65 1108.91 251.323 1108.07 252.854C1107.24 254.365 1105.96 255.594 1104.23 256.541C1102.52 257.487 1100.34 258.031 1097.7 258.172L1095.16 260.288ZM1094.8 279.9H1081.47L1084.95 273.373H1094.8C1096.45 273.373 1097.81 273.101 1098.88 272.557C1099.97 272.013 1100.77 271.268 1101.3 270.321C1101.84 269.354 1102.11 268.246 1102.11 266.997C1102.11 265.627 1101.87 264.438 1101.39 263.431C1100.92 262.423 1100.18 261.648 1099.15 261.104C1098.14 260.56 1096.81 260.288 1095.16 260.288H1086.52L1086.58 254.425H1097.58L1099.48 256.692C1102.02 256.712 1104.09 257.215 1105.68 258.203C1107.29 259.19 1108.48 260.459 1109.24 262.01C1110.01 263.562 1110.39 265.234 1110.39 267.027C1110.39 269.847 1109.78 272.214 1108.55 274.128C1107.34 276.042 1105.57 277.483 1103.23 278.45C1100.91 279.417 1098.1 279.9 1094.8 279.9Z"
    fill="#27AE60" />
  <path
    d="M1083.69 293.217V294.906H1077.7V293.217H1083.69ZM1078.29 288.52V299.9H1076.14V288.52H1078.29ZM1085.28 288.52V299.9H1083.13V288.52H1085.28ZM1087.11 295.758V295.594C1087.11 294.974 1087.2 294.403 1087.37 293.882C1087.55 293.356 1087.81 292.9 1088.15 292.514C1088.49 292.128 1088.9 291.829 1089.39 291.615C1089.88 291.396 1090.44 291.287 1091.06 291.287C1091.7 291.287 1092.26 291.396 1092.75 291.615C1093.25 291.829 1093.66 292.128 1094 292.514C1094.34 292.9 1094.6 293.356 1094.77 293.882C1094.95 294.403 1095.04 294.974 1095.04 295.594V295.758C1095.04 296.373 1094.95 296.943 1094.77 297.47C1094.6 297.991 1094.34 298.447 1094 298.837C1093.66 299.223 1093.25 299.523 1092.76 299.736C1092.27 299.95 1091.71 300.057 1091.08 300.057C1090.45 300.057 1089.89 299.95 1089.4 299.736C1088.9 299.523 1088.49 299.223 1088.15 298.837C1087.81 298.447 1087.55 297.991 1087.37 297.47C1087.2 296.943 1087.11 296.373 1087.11 295.758ZM1089.17 295.594V295.758C1089.17 296.128 1089.21 296.474 1089.28 296.797C1089.35 297.12 1089.46 297.404 1089.62 297.649C1089.77 297.894 1089.96 298.087 1090.2 298.228C1090.45 298.363 1090.74 298.431 1091.08 298.431C1091.41 298.431 1091.7 298.363 1091.94 298.228C1092.18 298.087 1092.37 297.894 1092.52 297.649C1092.68 297.404 1092.79 297.12 1092.87 296.797C1092.94 296.474 1092.98 296.128 1092.98 295.758V295.594C1092.98 295.229 1092.94 294.888 1092.87 294.57C1092.79 294.247 1092.68 293.963 1092.52 293.718C1092.37 293.468 1092.17 293.272 1091.93 293.131C1091.69 292.986 1091.4 292.913 1091.06 292.913C1090.73 292.913 1090.44 292.986 1090.2 293.131C1089.96 293.272 1089.77 293.468 1089.62 293.718C1089.46 293.963 1089.35 294.247 1089.28 294.57C1089.21 294.888 1089.17 295.229 1089.17 295.594ZM1103.66 291.443V299.9H1101.59V291.443H1103.66ZM1102.72 295.125V296.75C1102.52 296.844 1102.28 296.933 1102 297.016C1101.72 297.094 1101.43 297.157 1101.13 297.204C1100.82 297.251 1100.53 297.274 1100.24 297.274C1099.47 297.274 1098.8 297.159 1098.23 296.93C1097.68 296.701 1097.25 296.349 1096.94 295.875C1096.64 295.396 1096.49 294.783 1096.49 294.038V291.435H1098.55V294.038C1098.55 294.439 1098.61 294.757 1098.73 294.992C1098.85 295.226 1099.04 295.393 1099.29 295.492C1099.54 295.591 1099.86 295.641 1100.24 295.641C1100.54 295.641 1100.82 295.62 1101.09 295.578C1101.36 295.531 1101.63 295.471 1101.9 295.398C1102.17 295.32 1102.44 295.229 1102.72 295.125ZM1107.16 294.046H1109.63C1110.38 294.046 1111.02 294.171 1111.55 294.421C1112.08 294.666 1112.48 295.01 1112.76 295.453C1113.04 295.891 1113.18 296.399 1113.18 296.977C1113.18 297.394 1113.1 297.782 1112.94 298.142C1112.78 298.496 1112.55 298.806 1112.25 299.072C1111.95 299.332 1111.58 299.536 1111.13 299.682C1110.7 299.827 1110.2 299.9 1109.63 299.9H1105.83V291.443H1107.91V298.282H1109.63C1109.99 298.282 1110.28 298.222 1110.49 298.103C1110.71 297.978 1110.87 297.819 1110.96 297.626C1111.06 297.428 1111.11 297.217 1111.11 296.993C1111.11 296.763 1111.06 296.55 1110.96 296.352C1110.87 296.149 1110.71 295.984 1110.49 295.859C1110.28 295.734 1109.99 295.672 1109.63 295.672H1107.16V294.046Z"
    fill="black" />

  <path d="M293.843 447.922L1059.87 447.922" stroke="#6B7C84" stroke-width="4" stroke-linecap="square" />
  <path d="M293.843 471.922L1059.88 471.922" stroke="#6B7C84" stroke-width="4" stroke-linecap="square" />
  <rect x="1059.35" y="405.488" width="69.9924" height="108.829" rx="16.5" fill="white" />
  <rect x="1059.35" y="405.488" width="69.9924" height="108.829" rx="16.5" stroke="#71B8FF" />
  <path
    d="M1076.86 423.83H1073.95L1073.94 422.313H1076.43C1076.86 422.313 1077.22 422.253 1077.5 422.133C1077.79 422.014 1078.01 421.839 1078.15 421.61C1078.3 421.38 1078.38 421.102 1078.38 420.773C1078.38 420.409 1078.31 420.112 1078.17 419.882C1078.03 419.653 1077.82 419.486 1077.53 419.382C1077.23 419.273 1076.86 419.218 1076.42 419.218H1074.65V428.902H1072.5V417.522H1076.42C1077.06 417.522 1077.64 417.584 1078.14 417.709C1078.65 417.829 1079.09 418.017 1079.44 418.272C1079.8 418.528 1080.06 418.848 1080.25 419.234C1080.43 419.619 1080.53 420.078 1080.53 420.609C1080.53 421.078 1080.42 421.511 1080.2 421.907C1079.99 422.298 1079.65 422.615 1079.21 422.86C1078.76 423.105 1078.2 423.246 1077.52 423.282L1076.86 423.83ZM1076.77 428.902H1073.32L1074.22 427.214H1076.77C1077.2 427.214 1077.55 427.144 1077.82 427.003C1078.1 426.862 1078.31 426.669 1078.45 426.425C1078.59 426.174 1078.66 425.888 1078.66 425.565C1078.66 425.21 1078.6 424.903 1078.47 424.642C1078.35 424.382 1078.16 424.181 1077.89 424.041C1077.63 423.9 1077.29 423.83 1076.86 423.83H1074.63L1074.64 422.313H1077.49L1077.98 422.899C1078.64 422.905 1079.17 423.035 1079.58 423.29C1080 423.546 1080.31 423.874 1080.5 424.275C1080.7 424.676 1080.8 425.109 1080.8 425.573C1080.8 426.302 1080.64 426.914 1080.32 427.409C1080.01 427.904 1079.55 428.277 1078.95 428.527C1078.35 428.777 1077.62 428.902 1076.77 428.902ZM1086.46 429.059C1085.82 429.059 1085.25 428.954 1084.74 428.746C1084.23 428.538 1083.79 428.248 1083.43 427.878C1083.08 427.503 1082.8 427.068 1082.61 426.573C1082.42 426.073 1082.33 425.536 1082.33 424.963V424.65C1082.33 423.999 1082.42 423.407 1082.61 422.876C1082.8 422.339 1083.06 421.878 1083.41 421.492C1083.75 421.107 1084.16 420.81 1084.64 420.601C1085.12 420.393 1085.65 420.289 1086.23 420.289C1086.83 420.289 1087.36 420.39 1087.82 420.594C1088.27 420.792 1088.66 421.073 1088.97 421.438C1089.27 421.803 1089.5 422.24 1089.66 422.751C1089.82 423.256 1089.9 423.817 1089.9 424.431V425.299H1083.27V423.876H1087.86V423.72C1087.85 423.392 1087.79 423.092 1087.68 422.821C1087.56 422.545 1087.38 422.326 1087.14 422.165C1086.9 421.998 1086.59 421.915 1086.21 421.915C1085.91 421.915 1085.64 421.982 1085.41 422.118C1085.18 422.248 1085 422.436 1084.85 422.681C1084.7 422.92 1084.59 423.207 1084.52 423.54C1084.44 423.874 1084.41 424.244 1084.41 424.65V424.963C1084.41 425.317 1084.46 425.646 1084.55 425.948C1084.65 426.25 1084.79 426.513 1084.98 426.737C1085.17 426.956 1085.4 427.128 1085.67 427.253C1085.94 427.373 1086.25 427.433 1086.59 427.433C1087.02 427.433 1087.41 427.35 1087.76 427.183C1088.12 427.011 1088.42 426.758 1088.68 426.425L1089.72 427.503C1089.55 427.764 1089.31 428.014 1089 428.254C1088.71 428.493 1088.35 428.689 1087.93 428.84C1087.5 428.986 1087.02 429.059 1086.46 429.059ZM1098.4 420.445V428.902H1096.32V420.445H1098.4ZM1097.46 424.127V425.752C1097.26 425.846 1097.02 425.935 1096.74 426.018C1096.46 426.096 1096.17 426.159 1095.86 426.206C1095.56 426.253 1095.27 426.276 1094.98 426.276C1094.2 426.276 1093.53 426.161 1092.97 425.932C1092.41 425.703 1091.98 425.351 1091.68 424.877C1091.38 424.398 1091.23 423.785 1091.23 423.04V420.437H1093.29V423.04C1093.29 423.441 1093.35 423.759 1093.47 423.994C1093.59 424.228 1093.78 424.395 1094.03 424.494C1094.28 424.593 1094.59 424.642 1094.98 424.642C1095.28 424.642 1095.56 424.622 1095.83 424.58C1096.1 424.533 1096.37 424.473 1096.64 424.4C1096.91 424.322 1097.18 424.231 1097.46 424.127ZM1104.23 429.059C1103.59 429.059 1103.01 428.954 1102.5 428.746C1101.99 428.538 1101.56 428.248 1101.2 427.878C1100.84 427.503 1100.57 427.068 1100.38 426.573C1100.19 426.073 1100.1 425.536 1100.1 424.963V424.65C1100.1 423.999 1100.19 423.407 1100.38 422.876C1100.56 422.339 1100.83 421.878 1101.17 421.492C1101.52 421.107 1101.93 420.81 1102.41 420.601C1102.89 420.393 1103.42 420.289 1104 420.289C1104.59 420.289 1105.12 420.39 1105.58 420.594C1106.04 420.792 1106.42 421.073 1106.73 421.438C1107.04 421.803 1107.27 422.24 1107.43 422.751C1107.58 423.256 1107.66 423.817 1107.66 424.431V425.299H1101.03V423.876H1105.63V423.72C1105.62 423.392 1105.56 423.092 1105.44 422.821C1105.33 422.545 1105.15 422.326 1104.91 422.165C1104.67 421.998 1104.36 421.915 1103.98 421.915C1103.67 421.915 1103.4 421.982 1103.18 422.118C1102.95 422.248 1102.76 422.436 1102.61 422.681C1102.47 422.92 1102.36 423.207 1102.28 423.54C1102.21 423.874 1102.17 424.244 1102.17 424.65V424.963C1102.17 425.317 1102.22 425.646 1102.32 425.948C1102.41 426.25 1102.56 426.513 1102.75 426.737C1102.94 426.956 1103.17 427.128 1103.43 427.253C1103.7 427.373 1104.01 427.433 1104.36 427.433C1104.79 427.433 1105.18 427.35 1105.53 427.183C1105.88 427.011 1106.19 426.758 1106.45 426.425L1107.49 427.503C1107.31 427.764 1107.07 428.014 1106.77 428.254C1106.47 428.493 1106.11 428.689 1105.69 428.84C1105.27 428.986 1104.78 429.059 1104.23 429.059ZM1111.27 422.071V432.154H1109.2V420.445H1111.11L1111.27 422.071ZM1116.7 424.588V424.752C1116.7 425.367 1116.63 425.937 1116.48 426.464C1116.34 426.985 1116.13 427.441 1115.86 427.832C1115.58 428.217 1115.24 428.519 1114.83 428.738C1114.42 428.952 1113.95 429.059 1113.42 429.059C1112.9 429.059 1112.44 428.96 1112.06 428.762C1111.67 428.558 1111.35 428.272 1111.08 427.902C1110.82 427.532 1110.6 427.102 1110.44 426.612C1110.28 426.117 1110.17 425.578 1110.09 424.994V424.471C1110.17 423.85 1110.28 423.288 1110.44 422.782C1110.6 422.272 1110.82 421.831 1111.08 421.461C1111.35 421.086 1111.67 420.797 1112.05 420.594C1112.44 420.39 1112.89 420.289 1113.4 420.289C1113.94 420.289 1114.41 420.39 1114.82 420.594C1115.23 420.797 1115.58 421.089 1115.86 421.469C1116.14 421.849 1116.35 422.303 1116.49 422.829C1116.63 423.355 1116.7 423.942 1116.7 424.588ZM1114.63 424.752V424.588C1114.63 424.213 1114.6 423.866 1114.53 423.548C1114.46 423.225 1114.36 422.944 1114.22 422.704C1114.07 422.459 1113.89 422.269 1113.67 422.133C1113.44 421.998 1113.17 421.93 1112.86 421.93C1112.54 421.93 1112.26 421.982 1112.03 422.087C1111.81 422.191 1111.62 422.339 1111.47 422.532C1111.33 422.725 1111.21 422.954 1111.13 423.22C1111.05 423.48 1111 423.77 1110.97 424.088V425.385C1111.02 425.771 1111.11 426.117 1111.25 426.425C1111.38 426.732 1111.58 426.977 1111.84 427.159C1112.1 427.342 1112.45 427.433 1112.87 427.433C1113.19 427.433 1113.46 427.363 1113.68 427.222C1113.91 427.081 1114.09 426.888 1114.23 426.643C1114.37 426.393 1114.47 426.107 1114.54 425.784C1114.6 425.461 1114.63 425.117 1114.63 424.752Z"
    fill="black" />
  <path
    d="M1103.47 467.236H1111.56C1111.34 470.097 1110.55 472.634 1109.18 474.848C1107.8 477.043 1105.89 478.767 1103.44 480.021C1100.99 481.275 1098.03 481.902 1094.54 481.902C1091.85 481.902 1089.43 481.432 1087.28 480.492C1085.14 479.531 1083.31 478.17 1081.78 476.406C1080.27 474.623 1079.12 472.487 1078.31 469.999C1077.51 467.49 1077.11 464.679 1077.11 461.563V458.3C1077.11 455.185 1077.52 452.373 1078.34 449.865C1079.17 447.357 1080.34 445.221 1081.87 443.457C1083.42 441.674 1085.27 440.303 1087.43 439.343C1089.6 438.382 1092.03 437.902 1094.71 437.902C1098.2 437.902 1101.15 438.549 1103.56 439.842C1105.97 441.116 1107.84 442.87 1109.18 445.103C1110.51 447.337 1111.31 449.904 1111.59 452.804H1103.5C1103.35 451.001 1102.95 449.473 1102.33 448.219C1101.72 446.965 1100.8 446.015 1099.56 445.368C1098.35 444.702 1096.73 444.369 1094.71 444.369C1093.15 444.369 1091.77 444.663 1090.57 445.25C1089.39 445.838 1088.41 446.72 1087.63 447.896C1086.85 449.052 1086.26 450.502 1085.87 452.246C1085.48 453.97 1085.28 455.969 1085.28 458.242V461.563C1085.28 463.738 1085.46 465.688 1085.81 467.412C1086.16 469.136 1086.71 470.596 1087.45 471.791C1088.2 472.987 1089.16 473.898 1090.33 474.525C1091.51 475.152 1092.91 475.465 1094.54 475.465C1096.52 475.465 1098.12 475.152 1099.36 474.525C1100.61 473.898 1101.56 472.977 1102.21 471.762C1102.88 470.547 1103.3 469.038 1103.47 467.236Z"
    fill="#EB5757" />
  <path
    d="M1083.69 495.219V496.908H1077.7V495.219H1083.69ZM1078.29 490.522V501.902H1076.14V490.522H1078.29ZM1085.28 490.522V501.902H1083.13V490.522H1085.28ZM1087.11 497.76V497.596C1087.11 496.975 1087.2 496.405 1087.37 495.884C1087.55 495.357 1087.81 494.902 1088.15 494.516C1088.49 494.13 1088.9 493.831 1089.39 493.617C1089.88 493.398 1090.44 493.289 1091.06 493.289C1091.7 493.289 1092.26 493.398 1092.75 493.617C1093.25 493.831 1093.66 494.13 1094 494.516C1094.34 494.902 1094.6 495.357 1094.77 495.884C1094.95 496.405 1095.04 496.975 1095.04 497.596V497.76C1095.04 498.375 1094.95 498.945 1094.77 499.471C1094.6 499.993 1094.34 500.449 1094 500.839C1093.66 501.225 1093.25 501.525 1092.76 501.738C1092.27 501.952 1091.71 502.059 1091.08 502.059C1090.45 502.059 1089.89 501.952 1089.4 501.738C1088.9 501.525 1088.49 501.225 1088.15 500.839C1087.81 500.449 1087.55 499.993 1087.37 499.471C1087.2 498.945 1087.11 498.375 1087.11 497.76ZM1089.17 497.596V497.76C1089.17 498.13 1089.21 498.476 1089.28 498.799C1089.35 499.122 1089.46 499.406 1089.62 499.651C1089.77 499.896 1089.96 500.089 1090.2 500.23C1090.45 500.365 1090.74 500.433 1091.08 500.433C1091.41 500.433 1091.7 500.365 1091.94 500.23C1092.18 500.089 1092.37 499.896 1092.52 499.651C1092.68 499.406 1092.79 499.122 1092.87 498.799C1092.94 498.476 1092.98 498.13 1092.98 497.76V497.596C1092.98 497.231 1092.94 496.889 1092.87 496.572C1092.79 496.249 1092.68 495.965 1092.52 495.72C1092.37 495.47 1092.17 495.274 1091.93 495.133C1091.69 494.988 1091.4 494.915 1091.06 494.915C1090.73 494.915 1090.44 494.988 1090.2 495.133C1089.96 495.274 1089.77 495.47 1089.62 495.72C1089.46 495.965 1089.35 496.249 1089.28 496.572C1089.21 496.889 1089.17 497.231 1089.17 497.596ZM1103.66 493.445V501.902H1101.59V493.445H1103.66ZM1102.72 497.127V498.752C1102.52 498.846 1102.28 498.935 1102 499.018C1101.72 499.096 1101.43 499.159 1101.13 499.206C1100.82 499.253 1100.53 499.276 1100.24 499.276C1099.47 499.276 1098.8 499.161 1098.23 498.932C1097.68 498.703 1097.25 498.351 1096.94 497.877C1096.64 497.398 1096.49 496.785 1096.49 496.04V493.437H1098.55V496.04C1098.55 496.441 1098.61 496.759 1098.73 496.994C1098.85 497.228 1099.04 497.395 1099.29 497.494C1099.54 497.593 1099.86 497.642 1100.24 497.642C1100.54 497.642 1100.82 497.622 1101.09 497.58C1101.36 497.533 1101.63 497.473 1101.9 497.4C1102.17 497.322 1102.44 497.231 1102.72 497.127ZM1107.16 496.048H1109.63C1110.38 496.048 1111.02 496.173 1111.55 496.423C1112.08 496.668 1112.48 497.012 1112.76 497.455C1113.04 497.893 1113.18 498.401 1113.18 498.979C1113.18 499.396 1113.1 499.784 1112.94 500.144C1112.78 500.498 1112.55 500.808 1112.25 501.074C1111.95 501.334 1111.58 501.538 1111.13 501.683C1110.7 501.829 1110.2 501.902 1109.63 501.902H1105.83V493.445H1107.91V500.284H1109.63C1109.99 500.284 1110.28 500.224 1110.49 500.105C1110.71 499.98 1110.87 499.821 1110.96 499.628C1111.06 499.43 1111.11 499.219 1111.11 498.995C1111.11 498.765 1111.06 498.552 1110.96 498.354C1110.87 498.151 1110.71 497.986 1110.49 497.861C1110.28 497.736 1109.99 497.674 1109.63 497.674H1107.16V496.048Z"
    fill="black" />
  <path d="M268.064 471.873L268.065 67.9102" stroke="#6B7C84" stroke-width="4" stroke-linecap="square" />
  <path d="M292.064 447.923L292.067 44.0879" stroke="#6B7C84" stroke-width="4" stroke-linecap="square" />
  <path d="M91.8379 44.0879L290.856 44.0879" stroke="#6B7C84" stroke-width="4" stroke-linecap="square" />
  <path d="M268.045 270.482L290.855 270.482" stroke="#6B7C84" stroke-width="4" stroke-linecap="square" />
  <path d="M217.556 67.8438L306.247 67.8438" stroke="#6B7C84" stroke-width="4" stroke-linecap="square" />
  <path d="M268.065 471.906L306.245 471.906" stroke="#6B7C84" stroke-width="4" stroke-linecap="square" />
  <path d="M56.2085 43.9688L112.065 43.9689" stroke="#6B7C84" stroke-width="4" stroke-linecap="square" />
  <path d="M56.0654 105.969L56.0654 43.9688" stroke="#6B7C84" stroke-width="4" stroke-linecap="square" />
  <path d="M67.8892 62.4902L44.2405 72.3055" stroke="#6B7C84" stroke-width="4" stroke-linecap="round" />
  <path d="M67.8018 69.4551L44.328 79.6816" stroke="#6B7C84" stroke-width="4" stroke-linecap="round" />
  <path d="M67.8892 76.832L44.2405 86.6473" stroke="#6B7C84" stroke-width="4" stroke-linecap="round" />
  <path d="M16.0649 105.969L96.0649 105.969" stroke="#6B7C84" stroke-width="4" stroke-linecap="round" />
  <path d="M16.0649 121.969L16.0649 105.969" stroke="#6B7C84" stroke-width="4" stroke-linecap="round" />

  <path d="M16.0649 223.969L16.0649 207.969" stroke="#6B7C84" stroke-width="4" stroke-linecap="square" />
  <path d="M56.0649 121.969L56.0649 105.969" stroke="#6B7C84" stroke-width="4" stroke-linecap="round" />

  <path d="M56.0649 223.969L56.0649 207.969" stroke="#6B7C84" stroke-width="4" stroke-linecap="square" />
  <path d="M96.0649 121.969L96.0649 105.969" stroke="#6B7C84" stroke-width="4" stroke-linecap="round" />

  <path d="M96.0649 223.969L96.0649 207.969" stroke="#6B7C84" stroke-width="4" stroke-linecap="square" />

  <path d="M188.195 67.9688L244.065 67.9688" stroke="#6B7C84" stroke-width="4" stroke-linecap="square" />
  <path d="M188.065 105.969L188.065 67.9688" stroke="#6B7C84" stroke-width="4" stroke-linecap="square" />
  <path d="M199.889 74.6445L176.241 84.4598" stroke="#6B7C84" stroke-width="4" stroke-linecap="round" />
  <path d="M199.802 81.6094L176.328 91.8359" stroke="#6B7C84" stroke-width="4" stroke-linecap="round" />
  <path d="M199.889 88.9863L176.241 98.8016" stroke="#6B7C84" stroke-width="4" stroke-linecap="round" />
  <path d="M148.065 105.969L228.065 105.969" stroke="#6B7C84" stroke-width="4" stroke-linecap="round" />
  <path d="M148.065 121.969L148.065 105.969" stroke="#6B7C84" stroke-width="4" stroke-linecap="square" />

  <path d="M148.065 223.969L148.065 207.969" stroke="#6B7C84" stroke-width="4" stroke-linecap="square" />
  <path d="M188.065 121.969L188.065 105.969" stroke="#6B7C84" stroke-width="4" stroke-linecap="square" />

  <path d="M188.065 223.969L188.065 207.969" stroke="#6B7C84" stroke-width="4" stroke-linecap="square" />
  <path d="M228.065 121.969L228.065 105.969" stroke="#6B7C84" stroke-width="4" stroke-linecap="square" />

  <path d="M228.065 223.969L228.065 207.969" stroke="#6B7C84" stroke-width="4" stroke-linecap="square" />

  <path d="M41.3579 349.469L41.3579 339.969" stroke="#6B7C84" stroke-width="4" stroke-linecap="round" />
  <path d="M202.771 349.469L202.771 340.596" stroke="#6B7C84" stroke-width="4" stroke-linecap="round" />
  <path d="M41.3579 349.469L202.772 349.469" stroke="#6B7C84" stroke-width="4" stroke-linecap="round" />
  <path d="M122.065 388.469L122.065 349.469" stroke="#6B7C84" stroke-width="4" stroke-linecap="square" />
  <path d="M133.889 356.639L110.241 366.454" stroke="#6B7C84" stroke-width="4" stroke-linecap="round" />
  <path d="M133.802 363.604L110.328 373.83" stroke="#6B7C84" stroke-width="4" stroke-linecap="round" />
  <path d="M133.889 370.98L110.241 380.796" stroke="#6B7C84" stroke-width="4" stroke-linecap="round" />
  <path d="M46.0771 388.469L198.053 388.469" stroke="#6B7C84" stroke-width="4" stroke-linecap="square" />
  <path fill-rule="evenodd" clip-rule="evenodd"
        d="M48.0649 388.469L48.0649 400.469L44.0649 400.469L44.0649 388.469L48.0649 388.469Z" fill="#6B7C84" />

  <path fill-rule="evenodd" clip-rule="evenodd"
        d="M48.0649 449.805L48.0649 461.805L44.0649 461.805L44.0649 449.805L48.0649 449.805Z" fill="#6B7C84" />
  <rect x="44.0649" y="535.934" width="4" height="10.8711" rx="2" fill="#6B7C84" />

  <path
    d="M44.0649 461.805H48.0649V470.692C48.0649 471.797 47.1695 472.692 46.0649 472.692C44.9604 472.692 44.0649 471.797 44.0649 470.692V461.805Z"
    fill="#6B7C84" />
  <rect x="16.5649" y="547.305" width="59" height="59" rx="29.5" fill="white" />
  <rect x="16.5649" y="547.305" width="59" height="59" rx="29.5" stroke="#71B8FF" />
  <path
    d="M46.729 566.184L38.6235 590.305H32.9399L43.5649 561.867H47.1978L46.729 566.184ZM53.5063 590.305L45.3618 566.184L44.8735 561.867H48.5259L59.2095 590.305H53.5063ZM53.1353 579.738L53.1353 583.977H37.8813L37.8813 579.738H53.1353Z"
    fill="#F2C94C" />
  <path fill-rule="evenodd" clip-rule="evenodd"
        d="M124.065 388.469L124.065 400.469L120.065 400.469L120.065 388.469L124.065 388.469Z" fill="#6B7C84" />

  <path fill-rule="evenodd" clip-rule="evenodd"
        d="M124.065 449.805L124.065 461.805L120.065 461.805L120.065 449.805L124.065 449.805Z" fill="#6B7C84" />
  <g clip-path="url(#clip59_10754_279021)">
  </g>

  <rect x="120.067" y="535.824" width="4" height="10.871" rx="2" fill="#6B7C84" />


  <path
    d="M120.066 461.695H124.066V470.583C124.066 471.687 123.171 472.583 122.066 472.583C120.962 472.583 120.066 471.687 120.066 470.583V461.695Z"
    fill="#6B7C84" />
  <rect x="92.5649" y="547.305" width="59" height="59" rx="29.5" fill="white" />
  <rect x="92.5649" y="547.305" width="59" height="59" rx="29.5" stroke="#71B8FF" />
  <path
    d="M122.983 577.629H115.717L115.678 573.84H121.909C122.976 573.84 123.868 573.69 124.584 573.391C125.301 573.091 125.841 572.655 126.206 572.082C126.583 571.509 126.772 570.812 126.772 569.992C126.772 569.081 126.596 568.339 126.245 567.766C125.906 567.193 125.372 566.776 124.643 566.516C123.914 566.242 122.989 566.105 121.87 566.105H117.456L117.456 590.305H112.084L112.084 561.867H121.87C123.484 561.867 124.923 562.023 126.186 562.336C127.462 562.635 128.543 563.104 129.428 563.742C130.314 564.38 130.984 565.181 131.44 566.145C131.909 567.108 132.143 568.254 132.143 569.582C132.143 570.754 131.87 571.835 131.323 572.824C130.789 573.801 129.962 574.595 128.842 575.207C127.736 575.819 126.329 576.171 124.624 576.262L122.983 577.629ZM122.749 590.305H114.135L116.381 586.086H122.749C123.816 586.086 124.695 585.91 125.385 585.559C126.088 585.207 126.609 584.725 126.948 584.113C127.299 583.488 127.475 582.772 127.475 581.965C127.475 581.079 127.319 580.311 127.006 579.66C126.707 579.009 126.225 578.508 125.561 578.156C124.91 577.805 124.051 577.629 122.983 577.629H117.397L117.436 573.84H124.545L125.776 575.305C127.417 575.318 128.751 575.643 129.78 576.281C130.821 576.919 131.59 577.74 132.084 578.742C132.579 579.745 132.827 580.826 132.827 581.984C132.827 583.807 132.43 585.337 131.635 586.574C130.854 587.811 129.708 588.742 128.198 589.367C126.7 589.992 124.884 590.305 122.749 590.305Z"
    fill="#27AE60" />
  <path fill-rule="evenodd" clip-rule="evenodd"
        d="M200.065 388.469L200.065 400.469L196.065 400.469L196.065 388.469L200.065 388.469Z" fill="#6B7C84" />

  <path fill-rule="evenodd" clip-rule="evenodd"
        d="M200.065 449.805L200.065 461.805L196.065 461.805L196.065 449.805L200.065 449.805Z" fill="#6B7C84" />

  <rect x="196.065" y="535.824" width="4" height="10.8711" rx="2" fill="#6B7C84" />
  <path d="M188.081 522.506V522.552C188.065 522.537 188.081 522.521 188.081 522.506Z" fill="#257024" />

  <path
    d="M196.065 461.695H200.065V470.583C200.065 471.688 199.17 472.583 198.065 472.583C196.96 472.583 196.065 471.688 196.065 470.583V461.695Z"
    fill="#6B7C84" />
  <rect x="168.565" y="547.305" width="59" height="59" rx="29.5" fill="white" />
  <rect x="168.565" y="547.305" width="59" height="59" rx="29.5" stroke="#71B8FF" />
  <path
    d="M204.334 580.949H209.706C209.562 582.85 209.035 584.536 208.124 586.008C207.212 587.466 205.943 588.612 204.315 589.445C202.687 590.279 200.715 590.695 198.397 590.695C196.613 590.695 195.005 590.383 193.573 589.758C192.153 589.12 190.936 588.215 189.92 587.043C188.918 585.858 188.15 584.439 187.616 582.785C187.082 581.118 186.815 579.25 186.815 577.18V575.012C186.815 572.941 187.088 571.073 187.635 569.406C188.182 567.74 188.963 566.32 189.979 565.148C191.008 563.964 192.238 563.052 193.67 562.414C195.116 561.776 196.73 561.457 198.514 561.457C200.832 561.457 202.792 561.887 204.393 562.746C205.995 563.592 207.238 564.758 208.124 566.242C209.009 567.727 209.543 569.432 209.725 571.359H204.354C204.25 570.161 203.989 569.146 203.573 568.312C203.169 567.479 202.557 566.848 201.737 566.418C200.93 565.975 199.855 565.754 198.514 565.754C197.472 565.754 196.555 565.949 195.76 566.34C194.979 566.73 194.328 567.316 193.807 568.098C193.286 568.866 192.896 569.829 192.635 570.988C192.375 572.134 192.245 573.462 192.245 574.973V577.18C192.245 578.625 192.362 579.921 192.596 581.066C192.831 582.212 193.195 583.182 193.69 583.977C194.185 584.771 194.823 585.376 195.604 585.793C196.385 586.21 197.316 586.418 198.397 586.418C199.712 586.418 200.78 586.21 201.6 585.793C202.433 585.376 203.065 584.764 203.495 583.957C203.937 583.15 204.217 582.147 204.334 580.949Z"
    fill="#EB5757" />
  <path d="M47.5649 628.305L47.5649 606.805" stroke="#6B7C84" stroke-width="4" stroke-linecap="round" />
  <path d="M122.065 628.305L122.065 606.805" stroke="#6B7C84" stroke-width="4" stroke-linecap="round" />
  <path d="M196.565 628.305L196.565 606.805" stroke="#6B7C84" stroke-width="4" stroke-linecap="round" />
  <path d="M47.5649 628.305L196.565 628.305" stroke="#6B7C84" stroke-width="4" stroke-linecap="round" />
  <path d="M122.065 639.055L122.065 628.305" stroke="#6B7C84" stroke-width="4" stroke-linecap="round" />
  <path d="M47.5649 639.055L196.565 639.055" stroke="#6B7C84" stroke-width="4" stroke-linecap="round" />
  <path d="M47.5649 649.805L47.5649 639.055" stroke="#6B7C84" stroke-width="4" stroke-linecap="round" />
  <path d="M196.565 649.805L196.565 639.055" stroke="#6B7C84" stroke-width="4" stroke-linecap="round" />

  <rect x="1.41494" y="650.28" width="241.3" height="59.85" rx="14.725" stroke="#71B8FF" stroke-width="0.95" />
  <defs>
    <clipPath id="clip0_10754_279021">
      <rect width="9.99998" height="9.99998" fill="white" transform="translate(325.933 148.109)" />
    </clipPath>
    <clipPath id="clip1_10754_279021">
      <rect width="9.99998" height="9.99998" fill="white" transform="translate(369.933 148.109)" />
    </clipPath>
    <clipPath id="clip2_10754_279021">
      <rect width="9.99998" height="9.99998" fill="white" transform="translate(413.933 148.111)" />
    </clipPath>
    <clipPath id="clip3_10754_279021">
      <rect width="9.99998" height="9.99998" fill="white" transform="translate(457.933 148.109)" />
    </clipPath>
    <clipPath id="clip4_10754_279021">
      <rect width="9.99998" height="9.99998" fill="white" transform="translate(501.933 148.109)" />
    </clipPath>
    <clipPath id="clip5_10754_279021">
      <rect width="9.99998" height="9.99998" fill="white" transform="translate(545.933 148.111)" />
    </clipPath>
    <clipPath id="clip6_10754_279021">
      <rect width="9.99998" height="9.99998" fill="white" transform="translate(589.933 148.109)" />
    </clipPath>
    <clipPath id="clip7_10754_279021">
      <rect width="9.99998" height="9.99998" fill="white" transform="translate(633.933 148.109)" />
    </clipPath>
    <clipPath id="clip8_10754_279021">
      <rect width="10" height="10" fill="white" transform="translate(677.933 148.109)" />
    </clipPath>
    <clipPath id="clip9_10754_279021">
      <rect width="9.99998" height="9.99998" fill="white" transform="translate(721.933 148.111)" />
    </clipPath>
    <clipPath id="clip10_10754_279021">
      <rect width="10" height="10" fill="white" transform="translate(765.933 148.109)" />
    </clipPath>
    <clipPath id="clip11_10754_279021">
      <rect width="10" height="10" fill="white" transform="translate(809.933 148.109)" />
    </clipPath>
    <clipPath id="clip12_10754_279021">
      <rect width="10" height="10" fill="white" transform="translate(853.933 148.109)" />
    </clipPath>
    <clipPath id="clip13_10754_279021">
      <rect width="10" height="10" fill="white" transform="translate(897.933 148.109)" />
    </clipPath>
    <clipPath id="clip14_10754_279021">
      <rect width="10" height="10" fill="white" transform="translate(941.933 148.109)" />
    </clipPath>
    <clipPath id="clip15_10754_279021">
      <rect width="10" height="10" fill="white" transform="translate(985.933 148.109)" />
    </clipPath>
    <clipPath id="clip16_10754_279021">
      <rect width="9.99998" height="9.99998" fill="white" transform="translate(325.933 350.109)" />
    </clipPath>
    <clipPath id="clip17_10754_279021">
      <rect width="9.99998" height="9.99998" fill="white" transform="translate(369.933 350.109)" />
    </clipPath>
    <clipPath id="clip18_10754_279021">
      <rect width="9.99998" height="9.99998" fill="white" transform="translate(413.933 350.111)" />
    </clipPath>
    <clipPath id="clip19_10754_279021">
      <rect width="9.99998" height="9.99998" fill="white" transform="translate(457.933 350.109)" />
    </clipPath>
    <clipPath id="clip20_10754_279021">
      <rect width="9.99998" height="9.99998" fill="white" transform="translate(501.933 350.109)" />
    </clipPath>
    <clipPath id="clip21_10754_279021">
      <rect width="9.99998" height="9.99998" fill="white" transform="translate(545.933 350.111)" />
    </clipPath>
    <clipPath id="clip22_10754_279021">
      <rect width="9.99998" height="9.99998" fill="white" transform="translate(589.933 350.109)" />
    </clipPath>
    <clipPath id="clip23_10754_279021">
      <rect width="9.99998" height="9.99998" fill="white" transform="translate(633.933 350.109)" />
    </clipPath>
    <clipPath id="clip24_10754_279021">
      <rect width="10" height="10" fill="white" transform="translate(677.933 350.109)" />
    </clipPath>
    <clipPath id="clip25_10754_279021">
      <rect width="9.99998" height="9.99998" fill="white" transform="translate(721.933 350.111)" />
    </clipPath>
    <clipPath id="clip26_10754_279021">
      <rect width="10" height="10" fill="white" transform="translate(765.933 350.109)" />
    </clipPath>
    <clipPath id="clip27_10754_279021">
      <rect width="10" height="10" fill="white" transform="translate(809.933 350.109)" />
    </clipPath>
    <clipPath id="clip28_10754_279021">
      <rect width="10" height="10" fill="white" transform="translate(853.933 350.109)" />
    </clipPath>
    <clipPath id="clip29_10754_279021">
      <rect width="10" height="10" fill="white" transform="translate(897.933 350.109)" />
    </clipPath>
    <clipPath id="clip30_10754_279021">
      <rect width="10" height="10" fill="white" transform="translate(941.933 350.109)" />
    </clipPath>
    <clipPath id="clip31_10754_279021">
      <rect width="10" height="10" fill="white" transform="translate(985.933 350.109)" />
    </clipPath>
    <clipPath id="clip32_10754_279021">
      <rect width="9.99998" height="9.99998" fill="white" transform="translate(325.933 552.111)" />
    </clipPath>
    <clipPath id="clip33_10754_279021">
      <rect width="9.99998" height="9.99998" fill="white" transform="translate(369.933 552.111)" />
    </clipPath>
    <clipPath id="clip34_10754_279021">
      <rect width="9.99998" height="9.99998" fill="white" transform="translate(413.933 552.113)" />
    </clipPath>
    <clipPath id="clip35_10754_279021">
      <rect width="9.99998" height="9.99998" fill="white" transform="translate(457.933 552.111)" />
    </clipPath>
    <clipPath id="clip36_10754_279021">
      <rect width="9.99998" height="9.99998" fill="white" transform="translate(501.933 552.111)" />
    </clipPath>
    <clipPath id="clip37_10754_279021">
      <rect width="9.99998" height="9.99998" fill="white" transform="translate(545.933 552.113)" />
    </clipPath>
    <clipPath id="clip38_10754_279021">
      <rect width="9.99998" height="9.99998" fill="white" transform="translate(589.933 552.111)" />
    </clipPath>
    <clipPath id="clip39_10754_279021">
      <rect width="9.99998" height="9.99998" fill="white" transform="translate(633.933 552.111)" />
    </clipPath>
    <clipPath id="clip40_10754_279021">
      <rect width="10" height="10" fill="white" transform="translate(677.933 552.111)" />
    </clipPath>
    <clipPath id="clip41_10754_279021">
      <rect width="9.99998" height="9.99998" fill="white" transform="translate(721.933 552.113)" />
    </clipPath>
    <clipPath id="clip42_10754_279021">
      <rect width="10" height="10" fill="white" transform="translate(765.933 552.111)" />
    </clipPath>
    <clipPath id="clip43_10754_279021">
      <rect width="10" height="10" fill="white" transform="translate(809.933 552.111)" />
    </clipPath>
    <clipPath id="clip44_10754_279021">
      <rect width="10" height="10" fill="white" transform="translate(853.933 552.111)" />
    </clipPath>
    <clipPath id="clip45_10754_279021">
      <rect width="10" height="10" fill="white" transform="translate(897.933 552.111)" />
    </clipPath>
    <clipPath id="clip46_10754_279021">
      <rect width="10" height="10" fill="white" transform="translate(941.933 552.111)" />
    </clipPath>
    <clipPath id="clip47_10754_279021">
      <rect width="10" height="10" fill="white" transform="translate(985.933 552.111)" />
    </clipPath>
    <clipPath id="clip48_10754_279021">
      <rect width="13.3333" height="13.3333" fill="white" transform="translate(9.39844 186.303)" />
    </clipPath>
    <clipPath id="clip49_10754_279021">
      <rect width="13.3333" height="13.3333" fill="white" transform="translate(49.3984 186.303)" />
    </clipPath>
    <clipPath id="clip50_10754_279021">
      <rect width="13.3333" height="13.3333" fill="white" transform="translate(89.3984 186.303)" />
    </clipPath>
    <clipPath id="clip51_10754_279021">
      <rect width="14" height="14" fill="white" transform="translate(15.2612 236.68)" />
    </clipPath>
    <clipPath id="clip52_10754_279021">
      <rect width="13.3333" height="13.3333" fill="white" transform="translate(141.398 186.303)" />
    </clipPath>
    <clipPath id="clip53_10754_279021">
      <rect width="13.3333" height="13.3333" fill="white" transform="translate(181.398 186.303)" />
    </clipPath>
    <clipPath id="clip54_10754_279021">
      <rect width="13.3333" height="13.3333" fill="white" transform="translate(221.398 186.303)" />
    </clipPath>
    <clipPath id="clip55_10754_279021">
      <rect width="14" height="14" fill="white" transform="translate(147.261 236.68)" />
    </clipPath>
    <clipPath id="clip56_10754_279021">
      <rect width="11.4286" height="11.4286" fill="white" transform="translate(68.6411 471.52)" />
    </clipPath>
    <clipPath id="clip57_10754_279021">
      <rect width="11.4286" height="11.4286" fill="white" transform="translate(68.6411 528.09)" />
    </clipPath>
    <clipPath id="clip58_10754_279021">
      <rect width="11.4286" height="11.4286" fill="white" transform="translate(144.641 471.52)" />
    </clipPath>
    <clipPath id="clip59_10754_279021">
      <rect width="11.4286" height="11.4286" fill="white" transform="translate(144.641 528.09)" />
    </clipPath>
    <clipPath id="clip60_10754_279021">
      <rect width="11.4286" height="11.4286" fill="white" transform="translate(220.641 471.52)" />
    </clipPath>
    <clipPath id="clip61_10754_279021">
      <rect width="11.4286" height="11.4286" fill="white" transform="translate(220.641 528.09)" />
    </clipPath>
    <clipPath id="clip62_10754_279021">
      <rect x="0.939941" y="649.805" width="242.25" height="60.8" rx="15.2" fill="white" />
    </clipPath>
    <clipPath id="clip63_10754_279021">
      <rect width="22.8" height="22.8" fill="white" transform="translate(29.915 684.006)" />
    </clipPath>
    <clipPath id="clip64_10754_279021">
      <rect width="22.8" height="22.8" fill="white" transform="translate(110.665 684.006)" />
    </clipPath>
    <clipPath id="clip65_10754_279021">
      <rect width="22.8" height="22.8" fill="white" transform="translate(191.415 684.006)" />
    </clipPath>
  </defs>
</svg>
